<svg xmlns="http://www.w3.org/2000/svg" width="70" height="70" viewBox="0 0 70 70" fill="none"><path d="M34.8859 37.6621L39.1347 38.7856C39.3516 39.4956 39.6474 40.1955 39.9925 40.856L37.7743 44.642C37.6364 44.8884 37.6658 45.1936 37.8728 45.4006L40.7714 48.2994C40.9783 48.5064 41.2939 48.5555 41.5403 48.4077L45.3357 46.1896L45.6907 46.3672C46.0258 46.5347 46.3709 46.6825 46.7257 46.8105C46.9524 46.8996 47.1695 46.9684 47.3962 47.057L48.5101 51.2964C48.5891 51.5723 48.8355 51.7595 49.1215 51.7595H53.2324C53.5183 51.7595 53.7746 51.5723 53.8437 51.2964L53.8635 51.2372L53.9816 50.7737L54.159 50.0641L54.9576 47.057C55.6773 46.8207 56.3675 46.5347 57.028 46.1896L60.8135 48.4077C61.06 48.5555 61.3755 48.5064 61.5825 48.2994L63.4459 46.436L64.1063 45.7756L64.4811 45.4006C64.6881 45.1936 64.7174 44.8884 64.5795 44.642L62.5782 41.2011L62.5683 41.1814L62.3712 40.856C62.391 40.8165 62.4107 40.7871 62.4206 40.7477C62.7457 40.1166 63.0119 39.4562 63.2189 38.776L67.468 37.6621C67.744 37.5928 67.9412 37.3463 67.9412 37.0604V32.9596C67.9412 32.6539 67.744 32.4171 67.468 32.3482L63.2189 31.2242C63.0023 30.5147 62.7164 29.8148 62.3613 29.1639L64.5795 25.3683C64.7174 25.1219 64.6881 24.8066 64.4811 24.6092L61.5825 21.7013C61.3755 21.5039 61.06 21.4548 60.8135 21.6026L57.028 23.8207C56.9096 23.7615 56.7914 23.6927 56.673 23.6431C56.3281 23.4756 55.9829 23.3278 55.6282 23.1897C55.4111 23.1107 55.1843 23.0322 54.9576 22.9629L53.8437 18.7042C53.7746 18.4279 53.5183 18.2407 53.2324 18.2407H49.1215C48.8355 18.2407 48.5891 18.4279 48.5101 18.7042L47.3962 22.9629C46.6766 23.1897 45.9863 23.4756 45.3357 23.8207L45.3259 23.8106L44.7935 23.4953L44.4683 23.3081L42.4275 22.1249L41.5403 21.6026C41.4713 21.5631 41.3923 21.5333 41.3136 21.514C41.136 21.4938 40.9487 21.5535 40.8106 21.6714C40.7909 21.6815 40.7812 21.6911 40.7714 21.7013L38.2475 24.2347L37.8728 24.6092C37.6658 24.8066 37.6364 25.1219 37.7743 25.3683L39.7855 28.7991L39.9925 29.1639C39.9728 29.2034 39.953 29.2328 39.9432 29.2723C39.6178 29.8937 39.3419 30.5542 39.1347 31.2242L34.8859 32.3482C34.6098 32.4171 34.4127 32.6539 34.4127 32.9596V37.0604C34.4127 37.3463 34.6098 37.5928 34.8859 37.6621Z" fill="#70C1F9"></path><path d="M51.1823 27.2734C46.9116 27.2734 43.4494 30.7355 43.4494 35.0063C43.4494 39.2771 46.9116 42.7393 51.1823 42.7393C55.4531 42.7393 58.9153 39.2771 58.9153 35.0063C58.9153 30.7355 55.4531 27.2734 51.1823 27.2734Z" fill="#4F5D99"></path><path d="M51.1823 28.9399C47.832 28.9399 45.116 31.6558 45.116 35.0062C45.116 38.3565 47.832 41.0725 51.1823 41.0725C54.5327 41.0725 57.2487 38.3565 57.2487 35.0062C57.2487 31.6558 54.5327 28.9399 51.1823 28.9399Z" fill="white"></path><path d="M12.6257 59.0354V10.9648C12.6257 8.44149 14.6662 6.4101 17.1804 6.4101H46.6222C49.1364 6.4101 51.1769 8.44149 51.1769 10.9648V59.0354C51.1769 61.5496 49.1364 63.5901 46.6222 63.5901H17.1804C14.6662 63.5901 12.6257 61.5496 12.6257 59.0354Z" fill="#4F5D99"></path><path d="M15.8133 58.1284V11.8751C15.8133 11.1067 16.1974 10.4277 16.787 10.0167C16.8049 10.0078 16.8228 9.98989 16.8407 9.98095C17.198 9.73098 17.6268 9.59683 18.0914 9.59683H45.7164C46.9674 9.59683 47.9949 10.6244 47.9949 11.8751V58.1284C47.9949 59.3791 46.9674 60.4065 45.7164 60.4065H34.6915C34.2985 60.4065 33.9767 60.085 33.9767 59.6919C33.9767 58.8788 33.539 58.0926 32.8421 57.7353C32.8065 57.7175 32.7795 57.6996 32.7439 57.6906C32.6187 57.628 32.4937 57.5833 32.3598 57.5565C32.2078 57.5207 32.0559 57.5028 31.9039 57.5028C31.7521 57.5028 31.6003 57.5207 31.4485 57.5565C30.4745 57.7532 29.8313 58.7001 29.8313 59.6919C29.8313 59.8348 29.7866 59.9689 29.7061 60.085V60.0939C29.6882 60.1208 29.6703 60.1386 29.6437 60.1655C29.5185 60.3083 29.322 60.4065 29.1165 60.4065H18.0914C16.8407 60.4065 15.8133 59.3791 15.8133 58.1284Z" fill="#E9E9FF"></path><path d="M30.8209 22.696V21.8397C30.8209 21.6199 30.994 21.4468 31.2138 21.4468H43.196C43.4082 21.4468 43.5889 21.6199 43.5889 21.8397V22.696C43.5889 22.9086 43.4082 23.0889 43.196 23.0889H31.2138C30.994 23.0889 30.8209 22.9086 30.8209 22.696Z" fill="#CFCFFF"></path><path d="M20.2137 22.696V21.8397C20.2137 21.6199 20.3867 21.4468 20.6065 21.4468H28.2673C28.4795 21.4468 28.6602 21.6199 28.6602 21.8397V22.696C28.6602 22.9086 28.4795 23.0889 28.2673 23.0889H20.6065C20.3867 23.0889 20.2137 22.9086 20.2137 22.696Z" fill="#CFCFFF"></path><path d="M25.5716 16.8594V13.3212C25.5716 12.78 26.0103 12.3412 26.5515 12.3412H37.251C37.7923 12.3412 38.231 12.78 38.231 13.3212V16.8594C38.231 17.4006 37.7923 17.8394 37.251 17.8394H26.5515C26.0103 17.8394 25.5716 17.4006 25.5716 16.8594Z" fill="#7BD681"></path><path d="M28.0177 15.4533V14.723C28.0177 14.527 28.178 14.3665 28.374 14.3665H35.43C35.626 14.3665 35.7863 14.527 35.7863 14.723V15.4533C35.7863 15.6493 35.626 15.8098 35.43 15.8098H28.374C28.178 15.8098 28.0177 15.6493 28.0177 15.4533Z" fill="#28892D"></path><path d="M37.6557 53.907V47.2896C37.6557 46.9528 37.9321 46.6763 38.269 46.6763H44.8947C45.2318 46.6763 45.4996 46.9528 45.4996 47.2896V53.907C45.4996 54.2438 45.2318 54.5203 44.8947 54.5203H38.269C37.9321 54.5203 37.6557 54.2438 37.6557 53.907Z" fill="#ED524E"></path><path d="M27.9821 53.907V47.2896C27.9821 46.9528 28.2586 46.6763 28.5954 46.6763H35.2212C35.5582 46.6763 35.8261 46.9528 35.8261 47.2896V53.907C35.8261 54.2438 35.5582 54.5203 35.2212 54.5203H28.5954C28.2586 54.5203 27.9821 54.2438 27.9821 53.907Z" fill="#FDC72E"></path><path d="M18.3086 53.907V47.2896C18.3086 46.9528 18.5851 46.6763 18.9219 46.6763H25.5477C25.8847 46.6763 26.1526 46.9528 26.1526 47.2896V53.907C26.1526 54.2438 25.8847 54.5203 25.5477 54.5203H18.9219C18.5851 54.5203 18.3086 54.2438 18.3086 53.907Z" fill="#70C1F9"></path><path d="M27.9822 44.2964V37.679C27.9822 37.3422 28.2587 37.0657 28.5955 37.0657H35.2212C35.5583 37.0657 35.8261 37.3422 35.8261 37.679V44.2964C35.8261 44.6332 35.5583 44.9097 35.2212 44.9097H28.5955C28.2587 44.9097 27.9822 44.6332 27.9822 44.2964Z" fill="#7BD681"></path><path d="M18.3086 44.2964V37.679C18.3086 37.3422 18.5851 37.0657 18.922 37.0657H25.5477C25.8847 37.0657 26.1526 37.3422 26.1526 37.679V44.2964C26.1526 44.6332 25.8847 44.9097 25.5477 44.9097H18.922C18.5851 44.9097 18.3086 44.6332 18.3086 44.2964Z" fill="#CFCFFF"></path><path d="M27.9822 34.686V28.0687C27.9822 27.7319 28.2587 27.4554 28.5955 27.4554H35.2212C35.5583 27.4554 35.8261 27.7319 35.8261 28.0687V34.686C35.8261 35.0228 35.5583 35.2993 35.2212 35.2993H28.5955C28.2587 35.2993 27.9822 35.0228 27.9822 34.686Z" fill="#FDC72E"></path><path d="M18.3086 34.686V28.0687C18.3086 27.7319 18.5851 27.4554 18.922 27.4554H25.5477C25.8847 27.4554 26.1526 27.7319 26.1526 28.0687V34.686C26.1526 35.0228 25.8847 35.2993 25.5477 35.2993H18.922C18.5851 35.2993 18.3086 35.0228 18.3086 34.686Z" fill="#ED524E"></path><g opacity="0.2"><path d="M20.2626 9.59683H34.0751L47.9949 51.3829V58.1284C47.9949 59.3791 46.9674 60.4065 45.7164 60.4065H37.2021L20.2626 9.59683Z" fill="white"></path><path d="M15.8133 18.6475V11.8752C15.8133 11.1067 16.1974 10.4277 16.787 10.0168C16.8049 10.0078 16.8228 9.98995 16.8407 9.98101L32.7439 57.6907C32.6187 57.6281 32.4937 57.5834 32.3598 57.5565C32.2077 57.5208 32.0559 57.5029 31.9039 57.5029C31.7521 57.5029 31.6003 57.5208 31.4485 57.5565C30.4745 57.7533 29.8313 58.7002 29.8313 59.692C29.8313 59.8349 29.7866 59.969 29.7061 60.085V60.094C29.6882 60.1208 29.6703 60.1387 29.6437 60.1655L15.8133 18.6475Z" fill="white"></path></g><path d="M2.35708 18.6519L5.03521 19.3601C5.1719 19.8076 5.35835 20.2488 5.5759 20.6651L4.17775 23.0515C4.09082 23.2068 4.10932 23.3992 4.2398 23.5297L6.06684 25.3569C6.19731 25.4873 6.3962 25.5183 6.55155 25.4251L8.94386 24.027L9.16763 24.1389C9.37881 24.2445 9.59637 24.3377 9.81998 24.4184C9.96289 24.4745 10.0997 24.5179 10.2426 24.5737L10.9448 27.246C10.9945 27.4198 11.1499 27.5378 11.3301 27.5378H13.9213C14.1015 27.5378 14.2631 27.4198 14.3067 27.246L14.3191 27.2086L14.3936 26.9164L14.5054 26.4692L15.0088 24.5737C15.4624 24.4248 15.8975 24.2445 16.3138 24.027L18.6999 25.4251C18.8552 25.5183 19.0541 25.4873 19.1846 25.3569L20.3591 24.1823L20.7754 23.766L21.0116 23.5297C21.1421 23.3992 21.1606 23.2068 21.0737 23.0515L19.8122 20.8826L19.806 20.8702L19.6817 20.6651C19.6942 20.6402 19.7066 20.6217 19.7128 20.5968C19.9178 20.199 20.0856 19.7827 20.2161 19.354L22.8943 18.6519C23.0683 18.6082 23.1926 18.4529 23.1926 18.2726V15.6878C23.1926 15.4951 23.0683 15.3458 22.8943 15.3024L20.2161 14.594C20.0795 14.1467 19.8993 13.7055 19.6755 13.2953L21.0737 10.9029C21.1606 10.7475 21.1421 10.5488 21.0116 10.4244L19.1846 8.59141C19.0541 8.46701 18.8552 8.43606 18.6999 8.52921L16.3138 9.92737C16.2391 9.89005 16.1646 9.84666 16.09 9.81541C15.8726 9.70982 15.655 9.61667 15.4314 9.52958C15.2946 9.47982 15.1517 9.43037 15.0088 9.38667L14.3067 6.70232C14.2631 6.52816 14.1015 6.41013 13.9213 6.41013H11.3301C11.1499 6.41013 10.9945 6.52816 10.9448 6.70232L10.2426 9.38667C9.78904 9.52958 9.35393 9.70982 8.94386 9.92737L8.93764 9.921L8.60206 9.72226L8.3971 9.60423L7.11075 8.85842L6.55155 8.52921C6.50801 8.50433 6.45825 8.48552 6.40864 8.47338C6.29668 8.46064 6.17865 8.49826 6.09157 8.5726C6.07913 8.57897 6.07306 8.58504 6.06684 8.59141L4.47601 10.1883L4.2398 10.4244C4.10932 10.5488 4.09082 10.7475 4.17775 10.9029L5.44543 13.0653L5.5759 13.2953C5.56346 13.3202 5.55102 13.3387 5.5448 13.3636C5.33969 13.7553 5.16583 14.1716 5.03521 14.594L2.35708 15.3024C2.18306 15.3458 2.05882 15.4951 2.05882 15.6878V18.2726C2.05882 18.4529 2.18306 18.6082 2.35708 18.6519Z" fill="#ED524E"></path><path d="M12.6288 12.104C9.93684 12.104 7.75456 14.2863 7.75456 16.9783C7.75456 19.6703 9.93684 21.8525 12.6288 21.8525C15.3208 21.8525 17.5031 19.6703 17.5031 16.9783C17.5031 14.2863 15.3208 12.104 12.6288 12.104Z" fill="#4F5D99"></path><path d="M12.6288 13.154C10.5167 13.154 8.80453 14.8661 8.80453 16.9782C8.80453 19.0903 10.5167 20.8025 12.6288 20.8025C14.7409 20.8025 16.4531 19.0903 16.4531 16.9782C16.4531 14.8661 14.7409 13.154 12.6288 13.154Z" fill="white"></path></svg>