<svg xmlns="http://www.w3.org/2000/svg" width="70" height="70" viewBox="0 0 70 70" fill="none"><g clip-path="url(#clip0_34_309)"><path d="M68.6974 45.7098H1.1901C0.532666 45.7098 0 45.1771 0 44.5197V1.43883C0 0.781933 0.532666 0.249268 1.1901 0.249268H68.6974C69.3548 0.249268 69.8875 0.781933 69.8875 1.43883V44.5197C69.8875 45.1771 69.3548 45.7098 68.6974 45.7098Z" fill="#6770E6"></path><path d="M4.09497 40.4248V5.53381C4.09497 4.8769 4.62764 4.34424 5.28507 4.34424H64.6024C65.2598 4.34424 65.7925 4.8769 65.7925 5.53381V40.4248C65.7925 41.0822 65.2598 41.6149 64.6024 41.6149H5.28507C4.62764 41.6149 4.09497 41.0822 4.09497 40.4248Z" fill="#A1F1FC"></path><path d="M27.1836 45.7097H42.7039V51.0716H27.1836V45.7097Z" fill="#5861C7"></path><path d="M46.6655 54.07H23.2218C22.3943 54.07 21.723 53.3987 21.723 52.5706C21.723 51.7431 22.3943 51.0718 23.2218 51.0718H46.6655C47.4931 51.0718 48.1644 51.7431 48.1644 52.5706C48.1644 53.3987 47.4931 54.07 46.6655 54.07Z" fill="#6770E6"></path><path d="M46.6655 52.7048H23.2218C22.6401 52.7048 22.1368 52.3726 21.8883 51.8879C21.7833 52.0932 21.723 52.3246 21.723 52.5704C21.723 53.3985 22.3943 54.0698 23.2218 54.0698H46.6655C47.4931 54.0698 48.1644 53.3985 48.1644 52.5704C48.1644 52.3246 48.1041 52.0932 47.9991 51.8879C47.7506 52.3726 47.2473 52.7048 46.6655 52.7048Z" fill="#5861C7"></path><path d="M4.13013 40.4689C4.13013 41.1263 4.66279 41.659 5.32023 41.659H64.6376C65.295 41.659 65.8277 41.1263 65.8277 40.4689V9.47778H4.13013V40.4689Z" fill="#EDD4C2"></path><path d="M4.13013 5.53922V9.47796H65.8277V5.53922C65.8277 4.88179 65.295 4.34912 64.6376 4.34912H5.32023C4.66279 4.34912 4.13013 4.88179 4.13013 5.53922Z" fill="#FFF7F2"></path><path d="M12.6337 13.0925H51.9235V39.7498H12.6337V13.0925Z" fill="#FFF7F2"></path><path d="M11.2686 39.7498H5.49512V13.0925H11.2686V39.7498Z" fill="#FFF7F2"></path><path d="M11.2686 15.0675H5.49512V13.02H11.2686V15.0675Z" fill="#8F95E6"></path><path d="M65.8277 5.53922C65.8277 4.88179 65.295 4.34912 64.6376 4.34912H5.32023C4.66279 4.34912 4.13013 4.88179 4.13013 5.53922V6.39661H65.8277V5.53922Z" fill="#8F95E6"></path><path d="M51.9235 15.0675H12.6337V13.02H51.9235V15.0675Z" fill="#8F95E6"></path><path d="M64.547 24.3962H53.2885V13.1377H64.547V24.3962Z" fill="#FFF7F2"></path><path d="M64.547 39.7497H53.2885V25.7612H64.547V39.7497Z" fill="#FFF7F2"></path><path d="M54.4353 14.2847H57.4234V17.2727H54.4353V14.2847Z" fill="#A1F1FC"></path><path d="M57.4235 14.2847H60.4115V17.2727H57.4235V14.2847Z" fill="#69EBFC"></path><path d="M60.4115 14.2847H63.4001V17.2727H60.4115V14.2847Z" fill="#5FD4E3"></path><path d="M54.4353 17.2727H57.4234V20.2613H54.4353V17.2727Z" fill="#EA82FA"></path><path d="M57.4235 17.2727H60.4115V20.2613H57.4235V17.2727Z" fill="#D476E2"></path><path d="M60.4115 17.2727H63.4001V20.2613H60.4115V17.2727Z" fill="#B665C2"></path><path d="M54.4353 20.2612H57.4234V23.2493H54.4353V20.2612Z" fill="#FFAC8C"></path><path d="M57.4235 20.2612H60.4115V23.2493H57.4235V20.2612Z" fill="#FF8354"></path><path d="M60.4115 20.2612H63.4001V23.2493H60.4115V20.2612Z" fill="#E0734A"></path><path d="M54.4353 29.196H57.4234V32.1846H54.4353V29.196Z" fill="#EDD4C2"></path><path d="M62.8759 31.2142H58.7553C58.4663 31.2142 58.2317 30.9796 58.2317 30.6906C58.2317 30.4011 58.4663 30.1665 58.7553 30.1665H62.8759C63.1654 30.1665 63.4 30.4011 63.4 30.6906C63.4 30.9796 63.1654 31.2142 62.8759 31.2142Z" fill="#EDD4C2"></path><path d="M54.4353 33.0083H57.4234V35.9963H54.4353V33.0083Z" fill="#EDD4C2"></path><path d="M62.8759 35.0265H58.7553C58.4663 35.0265 58.2317 34.7919 58.2317 34.5024C58.2317 34.2128 58.4663 33.9788 58.7553 33.9788H62.8759C63.1654 33.9788 63.4 34.2128 63.4 34.5024C63.4 34.7919 63.1654 35.0265 62.8759 35.0265Z" fill="#EDD4C2"></path><path d="M35.9995 29.98C35.9995 33.8958 32.8243 37.0705 28.9085 37.0705C24.9921 37.0705 21.818 33.8958 21.818 29.98C21.818 26.0631 24.9921 22.8879 28.9085 22.8879C30.0277 22.8879 31.0866 23.1476 32.0277 23.6099L29.021 28.1096H35.7494C35.9126 28.7051 35.9995 29.3327 35.9995 29.98Z" fill="#69EBFC"></path><path d="M35.5926 28.2102H28.9404L31.913 23.7612C33.7003 24.6373 35.06 26.2529 35.5926 28.2102Z" fill="#D476E2"></path><path d="M42.7392 28.2101H35.5927C35.06 26.2527 33.7004 24.6372 31.9131 23.7611L35.8401 17.8853L42.7392 28.2101Z" fill="#FF8354"></path><path d="M64.547 27.8087H53.2885V25.7612H64.547V27.8087Z" fill="#8F95E6"></path><path d="M68.7725 68.5691C70.4995 66.8421 70.3897 64.0103 68.5342 62.4224L47.4744 44.4024C46.6671 43.7114 45.4642 43.7583 44.713 44.5096C43.9617 45.2608 43.9153 46.4637 44.6058 47.271L62.6258 68.3302C64.2137 70.1858 67.0455 70.2961 68.7725 68.5691Z" fill="#69EBFC"></path><path d="M68.7725 65.2947C67.0455 67.0217 64.2137 66.9119 62.6258 65.0558L44.9033 44.3442C44.8377 44.3954 44.7738 44.4493 44.713 44.5095C43.9617 45.2608 43.9153 46.4637 44.6058 47.271L62.6258 68.3302C64.2137 70.1857 67.0455 70.2961 68.7725 68.5691C70.0239 67.3177 70.3103 65.4866 69.6672 63.9686C69.4635 64.4496 69.1665 64.9012 68.7725 65.2947Z" fill="#5FD4E3"></path><path d="M46.5424 38.3388C46.5424 38.3388 44.2422 35.651 40.6079 35.7768C37.8369 35.8728 35.7724 36.4582 34.2773 35.7928C33.8198 35.5891 33.3319 36.0072 33.4652 36.4897C34.1493 38.9621 35.7137 43.5103 38.5423 46.3389C40.7514 48.548 44.3334 48.548 46.5424 46.3389C48.7515 44.1294 48.7515 40.5479 46.5424 38.3388Z" fill="#D476E2"></path><path d="M46.993 49.6517L49.8552 46.789C50.558 46.0868 50.558 44.9484 49.8552 44.2461C49.153 43.5439 48.0146 43.5439 47.3124 44.2461L44.4496 47.1089C43.7474 47.8111 43.7474 48.9495 44.4496 49.6517C45.1519 50.3539 46.2908 50.3539 46.993 49.6517Z" fill="#5FD4E3"></path></g><defs><clipPath id="clip0_34_309"><rect width="70" height="70" fill="white"></rect></clipPath></defs></svg>