<svg xmlns="http://www.w3.org/2000/svg" width="59" height="59" viewBox="0 0 59 59" fill="none"><g clip-path="url(#clip0_34_167)"><path d="M59 29.5C59 31.2844 58.8411 33.0316 58.5377 34.7281C56.0705 48.5269 44.008 59 29.5 59C18.5693 59 9.027 53.0554 3.93134 44.2223C2.6875 42.0683 1.70985 39.7432 1.04034 37.2904C0.36126 34.8088 0 32.1959 0 29.5C0 13.2076 13.2076 0 29.5 0C42.9472 0 54.292 8.99692 57.8452 21.3002C58.5967 23.9034 59 26.6547 59 29.5Z" fill="#8F9ED1"></path><path d="M15.0004 20.5393H4.13594L1.04028 37.2905C1.70979 39.7432 2.68744 42.0683 3.93128 44.2224H4.93912L6.13837 37.7348H12.1082C19.3772 37.7348 21.3314 31.2087 21.7999 28.0034C22.2695 24.7993 19.9251 20.5393 15.0004 20.5393ZM16.5765 28.5439C16.3105 30.361 14.9679 34.061 10.8475 34.061H6.81744L8.61879 24.3116H12.7211C16.7199 24.3116 16.8426 26.727 16.5765 28.5439Z" fill="#F2F2F2"></path><path d="M57.8452 21.3001C56.9217 20.8232 55.8211 20.5391 54.5496 20.5391H43.6852L39.3083 44.2223H44.4882L45.6875 37.7347H51.6573C54.8903 37.7347 57.0721 36.4439 58.5374 34.7281C58.841 33.0315 58.9999 31.2843 58.9999 29.4999C58.9999 26.6547 58.5966 23.9033 57.8452 21.3001ZM56.1258 28.5438C55.8597 30.3608 54.5171 34.0609 50.3955 34.0609H46.3667L48.168 24.3115H52.2704C56.2691 24.3115 56.3918 26.7269 56.1258 28.5438Z" fill="#F2F2F2"></path><path d="M35.6348 20.6176C33.5266 20.6176 30.7139 20.6176 29.3434 20.6176L30.5243 14.2278H25.3657L20.9888 37.9103H26.1474L28.6644 24.2912C29.5944 24.2912 30.8297 24.2912 31.9613 24.2912C34.1497 24.2912 35.6348 24.7602 35.3221 26.7924C35.0094 28.8245 33.2118 37.8129 33.2118 37.8129H38.4485C38.4485 37.8129 40.4807 27.8085 40.7933 24.9946C41.106 22.1808 38.5268 20.6176 35.6348 20.6176Z" fill="#F2F2F2"></path></g><defs><clipPath id="clip0_34_167"><rect width="59" height="59" fill="white"></rect></clipPath></defs></svg>