<svg xmlns="http://www.w3.org/2000/svg" width="57" height="57" viewBox="0 0 57 57" fill="none"><g clip-path="url(#clip0_34_486)"><path d="M28.5 56.9173C20.8884 56.9173 13.7321 53.962 8.34928 48.596C2.96522 43.2284 0 36.0915 0 28.5C0 20.9086 2.96522 13.7717 8.34928 8.4041C13.7321 3.03808 20.8884 0.0827637 28.5 0.0827637C35.7555 0.0827637 42.5973 2.768 47.8837 7.66677C48.1432 7.90724 48.3989 8.15305 48.6507 8.4041C49.7436 9.49366 49.1146 12.3953 50.0036 13.6197C50.9254 14.8893 53.3575 14.4861 54.05 15.8766C55.9799 19.7511 57 24.0474 57 28.5C57 36.0915 54.0348 43.2284 48.6507 48.596C43.2679 53.962 36.1116 56.9173 28.5 56.9173Z" fill="#00769D"></path><path d="M48.6507 8.4041C48.3989 8.15305 48.1432 7.90724 47.8837 7.66677C42.5973 2.768 35.7555 0.0827637 28.5 0.0827637V56.9173C36.1116 56.9173 43.2679 53.962 48.6507 48.596C54.0348 43.2284 57 36.0915 57 28.5C57 24.0474 55.9799 19.7511 54.0499 15.8766C53.3697 14.5109 50.905 14.869 50.0035 13.6197C49.102 12.3705 49.7638 9.51381 48.6507 8.4041Z" fill="#006699"></path><path d="M18.8103 55.2311C18.7787 55.2311 18.7472 55.2304 18.7153 55.2287C17.987 55.1899 17.3639 54.719 17.1281 54.0287L3.88597 15.2858C3.70083 14.7443 3.78901 14.1429 4.12188 13.6774C4.45475 13.2117 4.99536 12.9338 5.56758 12.9338H15.6776C16.6575 12.9338 17.4549 13.7311 17.4549 14.711C17.4549 15.6909 16.6575 16.4883 15.6776 16.4883H14.9049L23.1303 39.9575L28.4796 28.4622L24.3783 16.4882H23.7598C22.7799 16.4882 21.9826 15.6908 21.9826 14.7109C21.9826 13.731 22.7799 12.9337 23.7598 12.9337H34.5609C35.5408 12.9337 36.3381 13.731 36.3381 14.7109C36.3381 15.5754 35.7238 16.3034 34.8881 16.4578L42.8854 39.276C43.8151 36.4055 45.0095 32.3482 45.6416 28.716L44.0789 24.5969C43.456 22.9554 42.6873 21.2989 41.7285 19.5325C40.7594 17.7466 39.8487 14.9287 41.0136 11.6458C41.9956 8.87866 43.8599 7.38252 46.5548 7.19883C46.595 7.19616 46.6348 7.19482 46.6747 7.19482C47.1244 7.19482 47.5534 7.36271 47.8828 7.66741C50.4296 10.0238 52.5027 12.7865 54.0448 15.8789C54.2355 16.2611 54.282 16.6995 54.1759 17.1133C53.9637 17.9409 53.6421 18.7548 53.2199 19.5325C52.2611 21.2997 51.4922 22.9562 50.8697 24.5969L49.1985 29.0017C47.9877 36.274 44.692 44.9377 44.5521 45.3032C44.5343 45.3498 44.5146 45.395 44.4934 45.4394L40.4038 53.8943C40.1091 54.5038 39.4812 54.8977 38.8044 54.8977C38.7685 54.8977 38.7328 54.8966 38.6968 54.8945C37.9749 54.8508 37.3569 54.3806 37.1225 53.6964L30.1417 33.315L20.4212 54.2035C20.1306 54.8279 19.4983 55.2311 18.8103 55.2311Z" fill="white"></path><path d="M54.0446 15.8791C52.5026 12.7869 50.4295 10.0241 47.8827 7.66766C47.5534 7.36295 47.1242 7.19507 46.6746 7.19507C46.6347 7.19507 46.5949 7.1964 46.5547 7.19908C43.8599 7.38288 41.9955 8.87891 41.0134 11.6461C39.8486 14.9289 40.7593 17.7469 41.7284 19.5328C42.687 21.2992 43.4559 22.9557 44.0788 24.5971L45.6415 28.7162C45.0093 32.3484 43.8151 36.4058 42.8853 39.2763L34.8879 16.458C35.7238 16.3036 36.338 15.5756 36.338 14.7112C36.338 13.7313 35.5407 12.9339 34.5608 12.9339H28.4702V28.4355L28.4795 28.4624L28.4702 28.4822V36.9068L30.1415 33.3153L37.1223 53.6967C37.3566 54.3809 37.9746 54.8512 38.6966 54.8948C38.7326 54.8971 38.7683 54.8981 38.8041 54.8981C39.481 54.8981 40.1089 54.5042 40.4036 53.8947L44.4931 45.4397C44.5144 45.3954 44.5341 45.3501 44.5519 45.3036C44.6917 44.9381 47.9875 36.2743 49.1983 29.002L50.8694 24.5972C51.492 22.9566 52.2607 21.3 53.2197 19.5329C53.6418 18.7552 53.9635 17.9411 54.1757 17.1136C54.2819 16.6997 54.2353 16.2613 54.0446 15.8791Z" fill="#D7F2F9"></path></g><defs><clipPath id="clip0_34_486"><rect width="57" height="57" fill="white"></rect></clipPath></defs></svg>