<svg xmlns="http://www.w3.org/2000/svg" width="64" height="64" viewBox="0 0 64 64" fill="none"><g clip-path="url(#clip0_34_477)"><path d="M32 64C49.6731 64 64 49.6731 64 32C64 14.3269 49.6731 0 32 0C14.3269 0 0 14.3269 0 32C0 49.6731 14.3269 64 32 64Z" fill="#88C057"></path><path d="M44.049 19.4701C44.049 19.4701 44.02 19.2991 43.927 19.2371C43.835 19.1741 43.734 19.1631 43.734 19.1631L40.825 18.9351L38.684 16.7041C38.604 16.6381 38.096 16.0201 38 16.0001L37.966 16.5691C37.835 16.5731 37.72 16.5891 37.685 16.5971L36.575 16.9571C36.094 15.4631 35.434 14.3991 34.607 13.7851C34.065 13.3821 33.475 13.1811 32.844 13.1811C32.764 13.1811 32.675 13.2281 32.594 13.2351C32.44 13.0171 32.284 12.8031 32.097 12.6451C31.295 11.9631 30.259 11.8581 29.021 12.3301C25.306 13.7451 23.73 18.7931 23.163 21.3151L19.926 22.3671C19.926 22.3671 19.164 22.5941 18.985 22.8181C18.789 23.0661 18.751 23.7321 18.751 23.7321L16.006 45.9441L36.007 49.8771L36 50.0001L36.307 49.9361L36.615 49.9961L36.621 49.8691L47.995 47.4621L44.049 19.4701ZM32.444 18.3011L28.878 19.4591C29.35 17.5201 30.263 15.5561 31.99 14.7731C32.35 15.7701 32.455 17.1041 32.444 18.3011ZM29.445 13.5561C30.201 13.2681 30.768 13.3081 31.205 13.6171C28.89 14.7421 27.868 17.5271 27.43 19.9301L24.566 20.8601C25.206 18.4341 26.629 14.6291 29.445 13.5561ZM22.793 22.4801C22.842 22.3381 22.914 22.2171 22.998 22.1121C22.932 22.4671 22.896 22.7091 22.889 22.7611C22.84 23.1171 23.076 23.4471 23.416 23.4991C23.446 23.5031 23.476 23.5061 23.505 23.5061C23.809 23.5061 24.074 23.2721 24.119 22.9461C24.121 22.9311 24.161 22.6571 24.249 22.2171C24.36 22.4591 24.402 22.7491 24.295 23.0551C24.109 23.5881 23.622 23.8911 23.208 23.7321C22.793 23.5731 22.607 23.0131 22.793 22.4801ZM31.449 29.9271C31.285 29.8431 31.092 29.7551 30.873 29.6691C30.656 29.5851 30.415 29.5031 30.152 29.4371C29.893 29.3711 29.614 29.3171 29.319 29.2851C29.028 29.2541 28.722 29.2441 28.405 29.2631C28.114 29.2811 27.85 29.3351 27.618 29.4221C27.388 29.5081 27.189 29.6271 27.024 29.7751C26.86 29.9211 26.731 30.0961 26.639 30.2981C26.548 30.4981 26.495 30.7241 26.485 30.9771C26.477 31.1621 26.505 31.3401 26.567 31.5141C26.629 31.6881 26.727 31.8581 26.859 32.0271C26.992 32.1971 27.161 32.3661 27.366 32.5401C27.573 32.7131 27.816 32.8901 28.097 33.0751C28.491 33.3401 28.893 33.6381 29.276 33.9791C29.664 34.3271 30.032 34.7181 30.348 35.1651C30.668 35.6161 30.933 36.1231 31.113 36.6891C31.294 37.2611 31.385 37.8931 31.356 38.5881C31.309 39.7241 31.072 40.7041 30.679 41.5161C30.291 42.3201 29.756 42.9511 29.111 43.4071C28.481 43.8541 27.75 44.1321 26.956 44.2421C26.185 44.3501 25.357 44.3031 24.504 44.1051L24.484 44.1001L24.464 44.0961L24.443 44.0901L24.423 44.0851C24.023 43.9831 23.637 43.8521 23.274 43.6981C22.917 43.5461 22.581 43.3731 22.276 43.1861C21.975 43.0021 21.702 42.8041 21.466 42.6001C21.232 42.3981 21.033 42.1881 20.878 41.9781L21.819 38.7031C21.977 38.8441 22.172 39.0041 22.393 39.1671C22.616 39.3321 22.867 39.5011 23.137 39.6581C23.409 39.8171 23.7 39.9661 23.999 40.0861C24.302 40.2081 24.613 40.3021 24.922 40.3501C25.195 40.3921 25.439 40.3831 25.652 40.3331C25.867 40.2811 26.05 40.1871 26.2 40.0611C26.351 39.9321 26.468 39.7701 26.55 39.5831C26.632 39.3951 26.678 39.1851 26.687 38.9601C26.696 38.7341 26.677 38.5221 26.623 38.3161C26.569 38.1101 26.481 37.9111 26.354 37.7111C26.228 37.5121 26.063 37.3121 25.855 37.1061C25.649 36.9011 25.402 36.6891 25.109 36.4641C24.75 36.1841 24.412 35.8791 24.109 35.5461C23.811 35.2191 23.546 34.8631 23.329 34.4791C23.114 34.0971 22.945 33.6851 22.835 33.2371C22.727 32.7911 22.676 32.3081 22.697 31.7821C22.734 30.9031 22.902 30.0941 23.182 29.3631C23.465 28.6261 23.867 27.9641 24.37 27.3941C24.884 26.8141 25.508 26.3241 26.228 25.9461C26.968 25.5571 27.815 25.2861 28.753 25.1571C29.188 25.0961 29.606 25.0681 30.001 25.0671C30.402 25.0651 30.779 25.0891 31.126 25.1361C31.477 25.1841 31.797 25.2521 32.081 25.3351C32.368 25.4201 32.615 25.5221 32.82 25.6311L31.449 29.9271ZM33.699 20.7891C33.513 21.3231 33.026 21.6261 32.612 21.4671C32.197 21.3081 32.011 20.7471 32.197 20.2131C32.239 20.0921 32.301 19.9851 32.37 19.8921C32.351 20.0971 32.332 20.2931 32.312 20.4481C32.265 20.8051 32.502 21.1341 32.842 21.1831C33.182 21.2321 33.496 20.9831 33.543 20.6271C33.546 20.6031 33.58 20.3091 33.613 19.9071C33.749 20.1561 33.813 20.4591 33.699 20.7891ZM33.68 17.8981C33.678 17.7451 33.683 17.6061 33.678 17.4481C33.637 16.3011 33.487 15.3391 33.237 14.5501C33.507 14.5831 33.77 14.6341 33.995 14.8001C34.642 15.2801 35.101 16.2521 35.429 17.3311L33.68 17.8981Z" fill="white"></path></g><defs><clipPath id="clip0_34_477"><rect width="64" height="63.999" fill="white"></rect></clipPath></defs></svg>