<svg xmlns="http://www.w3.org/2000/svg" width="112" height="112" viewBox="0 0 112 112" fill="none"><g clip-path="url(#clip0_574_3791)"><path d="M58.5666 11.2598C81.8252 11.2598 100.855 30.2896 100.855 53.5482V60.1554C100.855 83.4141 81.8251 102.444 58.5666 102.444H51.9594C28.7007 102.444 9.6709 83.4141 9.6709 60.1554V53.5482C9.6709 30.2896 28.7007 11.2598 51.9594 11.2598H58.5666ZM56.0943 34.178L55.5059 34.1773C50.6066 34.1773 45.7073 34.3392 45.7073 34.3392C38.5514 34.3392 32.7503 40.1402 32.7503 47.2961C32.7503 47.2961 32.6016 51.503 32.5892 56.0185L32.5884 56.6089C32.5884 61.6647 32.7503 66.8934 32.7503 66.8934C32.7503 74.0493 38.5514 79.8503 45.7073 79.8503C45.7073 79.8503 50.288 80.0123 55.0201 80.0123C60.0759 80.0123 65.4665 79.8503 65.4665 79.8503C72.6224 79.8503 78.2615 74.2113 78.2615 67.0554C78.2615 67.0554 78.4234 61.8856 78.4234 56.9329L78.4205 55.7706C78.3985 51.327 78.2614 47.1341 78.2614 47.1341C78.2614 39.9782 72.6223 34.3392 65.4664 34.3392C65.4664 34.3392 60.802 34.19 56.0943 34.178ZM55.5059 38.3023C59.5234 38.3023 64.6745 38.4352 64.6745 38.4352C70.5424 38.4352 74.1654 42.0581 74.1654 47.926C74.1654 47.926 74.2982 52.9892 74.2982 56.9618C74.2982 61.023 74.1654 66.2632 74.1654 66.2632C74.1654 72.1311 70.5424 75.7541 64.6745 75.7541C64.6745 75.7541 60.1192 75.8657 56.1667 75.8843L55.1075 75.8869C51.2272 75.8869 46.4992 75.7541 46.4992 75.7541C40.6314 75.7541 36.8464 71.969 36.8464 66.1013C36.8464 66.1013 36.7135 60.842 36.7135 56.6962C36.7135 52.8159 36.8464 47.926 36.8464 47.926C36.8464 42.0581 40.6315 38.4352 46.4992 38.4352C46.4992 38.4352 51.4884 38.3023 55.5059 38.3023ZM55.5058 45.355C49.0222 45.355 43.7662 50.611 43.7662 57.0946C43.7662 63.5782 49.0222 68.8342 55.5058 68.8342C61.9894 68.8342 67.2454 63.5782 67.2454 57.0946C67.2454 50.611 61.9894 45.355 55.5058 45.355ZM55.5058 49.4554C59.7248 49.4554 63.145 52.8756 63.145 57.0946C63.145 61.3136 59.7248 64.7338 55.5058 64.7338C51.2869 64.7338 47.8666 61.3136 47.8666 57.0946C47.8666 52.8756 51.2868 49.4554 55.5058 49.4554ZM67.8071 42.0972C66.2406 42.0972 64.9705 43.3735 64.9705 44.9479C64.9705 46.5222 66.2406 47.7984 67.8071 47.7984C69.3737 47.7984 70.6437 46.5222 70.6437 44.9479C70.6437 43.3734 69.3737 42.0972 67.8071 42.0972Z" fill="#7590FF"></path></g><defs><clipPath id="clip0_574_3791"><rect width="91.67" height="91.67" fill="white" transform="translate(9.62891 11.1641)"></rect></clipPath></defs></svg>