<svg xmlns="http://www.w3.org/2000/svg" width="112" height="111" viewBox="0 0 112 111" fill="none"><path d="M55.2987 100.833C80.6117 100.833 101.132 80.3124 101.132 54.9993C101.132 29.6863 80.6117 9.16602 55.2987 9.16602C29.9856 9.16602 9.46533 29.6863 9.46533 54.9993C9.46533 80.3124 29.9856 100.833 55.2987 100.833Z" fill="#7590FF"></path><path fill-rule="evenodd" clip-rule="evenodd" d="M43.3243 32.7339C43.3243 35.5873 41.1518 37.8964 37.7544 37.8964C34.4892 37.8964 32.3165 35.5873 32.3838 32.7339C32.3165 29.7419 34.489 27.5 37.8195 27.5C41.1518 27.5 43.2592 29.7419 43.3243 32.7339ZM32.657 75.2104V41.9746H42.986V75.2081L32.657 75.2104Z" fill="white"></path><path fill-rule="evenodd" clip-rule="evenodd" d="M51.2639 52.5805C51.2639 48.4351 51.1273 44.9009 50.9907 41.9784H59.9626L60.4395 46.5314H60.6435C62.0029 44.424 65.4003 41.2324 70.9053 41.2324C77.7003 41.2324 82.7977 45.7184 82.7977 55.501V75.2139H72.4685V56.7954C72.4685 52.5113 70.9747 49.5906 67.2368 49.5906C64.3814 49.5906 62.6835 51.5614 62.0049 53.463C61.7318 54.1439 61.5972 55.0936 61.5972 56.0474V75.2139H51.268V52.5805H51.2639Z" fill="white"></path></svg>