<svg xmlns="http://www.w3.org/2000/svg" width="21" height="21" viewBox="0 0 21 21" fill="none"><mask id="mask0_35_651" style="mask-type:alpha" maskUnits="userSpaceOnUse" x="0" y="0" width="21" height="21"><rect width="21" height="21" fill="#D9D9D9"></rect></mask><g mask="url(#mask0_35_651)"><path d="M3.49997 17.5005C3.01872 17.5005 2.60674 17.3291 2.26403 16.9864C1.92132 16.6437 1.74997 16.2317 1.74997 15.7505V5.25049C1.74997 4.76924 1.92132 4.35726 2.26403 4.01455C2.60674 3.67184 3.01872 3.50049 3.49997 3.50049H17.5C17.9812 3.50049 18.3932 3.67184 18.7359 4.01455C19.0786 4.35726 19.25 4.76924 19.25 5.25049V15.7505C19.25 16.2317 19.0786 16.6437 18.7359 16.9864C18.3932 17.3291 17.9812 17.5005 17.5 17.5005H3.49997ZM10.5 11.3755L3.49997 7.00049V15.7505H17.5V7.00049L10.5 11.3755ZM10.5 9.62549L17.5 5.25049H3.49997L10.5 9.62549ZM3.49997 7.00049V5.25049V15.7505V7.00049Z" fill="#6E6E6E"></path></g></svg>