<svg xmlns="http://www.w3.org/2000/svg" width="70" height="70" viewBox="0 0 70 70" fill="none"><g clip-path="url(#clip0_34_377)"><path d="M70 35C70 54.33 54.33 70 35 70C15.67 70 0 54.33 0 35C0 20.9091 8.32686 8.76316 20.3284 3.2143C20.8291 2.98283 22.5198 4.44832 23.0329 4.24023C27.093 2.59305 29.5285 2.18945 34.1797 2.18945C38.8768 2.18945 44.1327 2.89383 48.2252 4.57219C48.9126 4.8541 49.6346 3.18873 50.2994 3.51221C61.9624 9.18959 70 21.1562 70 35Z" fill="#3493F8"></path><path d="M64.0164 32.599C64.0164 47.4452 51.9813 59.4802 37.1351 59.4802C22.289 59.4802 10.2539 47.4452 10.2539 32.599C10.2539 17.7529 22.289 5.71777 37.1351 5.71777C51.9813 5.71777 64.0164 17.753 64.0164 32.599Z" fill="#55A4F9"></path><path d="M60.3806 35.7554V46.2609C60.3806 46.8272 59.9215 47.2863 59.3552 47.2863C58.7889 47.2863 58.3298 46.8272 58.3298 46.2609V36.7808H36.0254V45.9252C36.0254 46.4915 35.5663 46.9506 35 46.9506C34.4337 46.9506 33.9746 46.4915 33.9746 45.9252V36.7808H11.6702V46.2609C11.6702 46.8272 11.2111 47.2863 10.6448 47.2863C10.0785 47.2863 9.61938 46.8272 9.61938 46.2609V35.7554C9.61938 35.1891 10.0785 34.73 10.6448 34.73H33.9746V25.7632C33.9746 25.1969 34.4337 24.7378 35 24.7378C35.5663 24.7378 36.0254 25.1969 36.0254 25.7632V34.73H59.3552C59.9215 34.73 60.3806 35.1891 60.3806 35.7554Z" fill="#A7D0FC"></path><path d="M51.2585 6.33862V28.711C51.2585 29.4661 50.6464 30.0782 49.8913 30.0782H22.7041C21.949 30.0782 21.3369 29.4661 21.3369 28.711V6.33862C21.3369 5.58353 21.949 4.97144 22.7041 4.97144H49.8913C50.6464 4.97144 51.2585 5.58353 51.2585 6.33862Z" fill="#FFF5F5"></path><path d="M23.2865 30.0782H19.4805C19.0724 30.0782 18.7415 29.7473 18.7415 29.3392V6.42953C18.7415 6.02143 19.0724 5.69043 19.4805 5.69043H23.2865C22.8784 5.69043 22.5475 6.02129 22.5475 6.42953V29.3392C22.5475 29.7473 22.8784 30.0782 23.2865 30.0782Z" fill="#E9F3FE"></path><path d="M51.2585 0.738965V6.42947H32.7221L31.7391 5.83229H20.5066C20.1033 5.83229 19.7762 6.10244 19.7762 5.69898V1.24455C19.7762 0.557266 20.3335 0 21.0208 0H50.5195C50.9276 0 51.2585 0.330859 51.2585 0.738965Z" fill="#203E76"></path><path d="M23.2865 0C22.8784 0 22.5475 0.330859 22.5475 0.738965V6.42947H18.7415V0.738965C18.7415 0.330859 19.0724 0 19.4805 0L23.2865 0Z" fill="#19305C"></path><path d="M48.2252 2.18945C48.7915 2.18945 49.2506 2.64855 49.2506 3.21484C49.2506 3.78113 48.7915 4.24023 48.2252 4.24023C47.6589 4.24023 47.1998 3.78113 47.1998 3.21484C47.1998 2.64855 47.6589 2.18945 48.2252 2.18945ZM43.0983 3.21484C43.0983 3.78113 43.5574 4.24023 44.1236 4.24023C44.6899 4.24023 45.149 3.78113 45.149 3.21484C45.149 2.64855 44.6899 2.18945 44.1236 2.18945C43.5574 2.18945 43.0983 2.64842 43.0983 3.21484ZM38.9967 3.21484C38.9967 3.78113 39.4558 4.24023 40.0221 4.24023C40.5884 4.24023 41.0475 3.78113 41.0475 3.21484C41.0475 2.64855 40.5884 2.18945 40.0221 2.18945C39.4558 2.18945 38.9967 2.64842 38.9967 3.21484ZM32.7221 4.08178C32.7221 3.32668 32.11 2.71459 31.3549 2.71459H23.9147C23.1596 2.71459 22.5475 3.32668 22.5475 4.08178V6.42951H32.7221V4.08178Z" fill="#6990D7"></path><path d="M23.0329 18.6331C23.0329 19.1993 22.5738 19.6584 22.0075 19.6584H21.8211C21.2548 19.6584 20.7957 19.1993 20.7957 18.6331C20.7957 18.0668 21.2548 17.6077 21.8211 17.6077H22.0075C22.5738 17.6077 23.0329 18.0668 23.0329 18.6331ZM22.0075 25.8108H21.8211C21.2548 25.8108 20.7957 26.2699 20.7957 26.8362C20.7957 27.4025 21.2548 27.8616 21.8211 27.8616H22.0075C22.5738 27.8616 23.0329 27.4025 23.0329 26.8362C23.0329 26.2699 22.5738 25.8108 22.0075 25.8108ZM22.0075 13.5061H21.8211C21.2548 13.5061 20.7957 13.9652 20.7957 14.5315C20.7957 15.0978 21.2548 15.5569 21.8211 15.5569H22.0075C22.5738 15.5569 23.0329 15.0978 23.0329 14.5315C23.0329 13.9652 22.5738 13.5061 22.0075 13.5061ZM26.4817 25.8108H26.2954C25.7291 25.8108 25.27 26.2699 25.27 26.8362C25.27 27.4025 25.7291 27.8616 26.2954 27.8616H26.4817C27.048 27.8616 27.5071 27.4025 27.5071 26.8362C27.5071 26.2699 27.048 25.8108 26.4817 25.8108Z" fill="#76B6FA"></path><path d="M20.7957 10.4299C20.7957 9.86364 21.2548 9.40454 21.8211 9.40454H30.0867C30.653 9.40454 31.1121 9.86364 31.1121 10.4299C31.1121 10.9962 30.653 11.4553 30.0867 11.4553H21.8211C21.2548 11.4553 20.7957 10.9962 20.7957 10.4299ZM24.8799 14.5315C24.8799 15.0978 25.339 15.5569 25.9053 15.5569H32.5712C33.1375 15.5569 33.5966 15.0978 33.5966 14.5315C33.5966 13.9652 33.1375 13.5061 32.5712 13.5061H25.9053C25.339 13.5061 24.8799 13.9652 24.8799 14.5315ZM30.0869 21.7092H21.8213C21.255 21.7092 20.7959 22.1683 20.7959 22.7346C20.7959 23.3009 21.255 23.76 21.8213 23.76H30.0869C30.6532 23.76 31.1123 23.3009 31.1123 22.7346C31.1123 22.1683 30.6532 21.7092 30.0869 21.7092ZM32.5712 17.6077H25.9053C25.339 17.6077 24.8799 18.0668 24.8799 18.6331C24.8799 19.1993 25.339 19.6584 25.9053 19.6584H32.5712C33.1375 19.6584 33.5966 19.1993 33.5966 18.6331C33.5966 18.0668 33.1375 17.6077 32.5712 17.6077Z" fill="#A7D0FC"></path><path d="M18.457 64.0444H4.46347C3.33089 64.0444 2.41269 63.1262 2.41269 61.9937V45.5874C2.41269 44.4548 3.33089 43.5366 4.46347 43.5366H18.457C19.5896 43.5366 20.5078 44.4548 20.5078 45.5874V61.9937C20.5078 63.1264 19.5896 64.0444 18.457 64.0444Z" fill="#FB5858"></path><path d="M5.42856 64.0443H1.80947C0.810195 64.0443 0 63.2342 0 62.2348V45.3461C0 44.3467 0.810195 43.5366 1.80947 43.5366H5.42856C4.42914 43.5366 3.61908 44.3468 3.61908 45.3461V62.2348C3.61908 63.2342 4.42914 64.0443 5.42856 64.0443Z" fill="#F44545"></path><path d="M43.2031 64.0444H29.2096C28.077 64.0444 27.1588 63.1262 27.1588 61.9937V45.5874C27.1588 44.4548 28.077 43.5366 29.2096 43.5366H43.2031C44.3357 43.5366 45.2539 44.4548 45.2539 45.5874V61.9937C45.2539 63.1264 44.3357 64.0444 43.2031 64.0444Z" fill="#FFC14F"></path><path d="M30.1746 64.0443H26.5556C25.5562 64.0443 24.7461 63.2341 24.7461 62.2348V45.3461C24.7461 44.3467 25.5563 43.5366 26.5556 43.5366H30.1746C29.1752 43.5366 28.3652 44.3468 28.3652 45.3461V62.2348C28.3652 63.2342 29.1752 64.0443 30.1746 64.0443Z" fill="#FFB52D"></path><path d="M67.9492 64.0444H53.9557C52.8231 64.0444 51.9049 63.1262 51.9049 61.9937V45.5874C51.9049 44.4548 52.8231 43.5366 53.9557 43.5366H67.9492C69.0818 43.5366 70 44.4548 70 45.5874V61.9937C70 63.1264 69.0818 64.0444 67.9492 64.0444Z" fill="#6DC54A"></path><path d="M54.9207 64.0443H51.3017C50.3022 64.0443 49.4922 63.2341 49.4922 62.2348V45.3461C49.4922 44.3467 50.3024 43.5366 51.3017 43.5366H54.9207C53.9213 43.5366 53.1113 44.3468 53.1113 45.3461V62.2348C53.1113 63.2342 53.9213 64.0443 54.9207 64.0443Z" fill="#5DB33A"></path><path d="M57.4219 20.1278V21.8284C57.4219 22.6582 56.8277 23.349 56.0416 23.4988C55.7841 24.5484 55.3695 25.5364 54.824 26.4362C55.2744 27.0981 55.2064 28.0073 54.6194 28.5942L53.4169 29.7968C52.8299 30.3837 51.9207 30.4518 51.2589 30.0013C50.3591 30.5468 49.3712 30.9614 48.3215 31.2189C48.1716 32.0051 47.4808 32.5993 46.651 32.5993H44.9504C44.1207 32.5993 43.4298 32.0051 43.28 31.2189C42.2304 30.9614 41.2425 30.5468 40.3426 30.0013C39.6807 30.4518 38.7715 30.3837 38.1846 29.7968L36.982 28.5942C36.3951 28.0073 36.327 27.0981 36.7775 26.4362C36.232 25.5365 35.8173 24.5486 35.5599 23.4988C34.7737 23.349 34.1796 22.6582 34.1796 21.8284V20.1278C34.1796 19.298 34.7737 18.6072 35.5599 18.4573C35.8173 17.4078 36.232 16.4198 36.7775 15.5199C36.327 14.8581 36.3951 13.9489 36.982 13.362L38.1846 12.1594C38.7715 11.5725 39.6807 11.5044 40.3426 11.9549C41.2423 11.4094 42.2303 10.9947 43.28 10.7372C43.4298 9.95111 44.1207 9.35693 44.9504 9.35693H46.651C47.4808 9.35693 48.1716 9.95111 48.3215 10.7372C49.3711 10.9947 50.359 11.4094 51.2589 11.9549C51.9207 11.5044 52.8299 11.5725 53.4169 12.1594L54.6194 13.362C55.2064 13.9489 55.2744 14.8581 54.824 15.5199C55.3695 16.4197 55.7841 17.4076 56.0416 18.4573C56.8277 18.6072 57.4219 19.298 57.4219 20.1278Z" fill="#203E76"></path><path d="M53.7321 20.978C53.7321 25.3583 50.1811 28.9093 45.8008 28.9093C41.4204 28.9093 37.8694 25.3583 37.8694 20.978C37.8694 16.5976 41.4204 13.0466 45.8008 13.0466C50.1811 13.0466 53.7321 16.5976 53.7321 20.978Z" fill="#19305C"></path><path d="M52.3648 20.5783C52.4363 21.7866 52.1813 22.9296 51.6798 23.9272C51.64 24.0065 51.5752 24.0712 51.4961 24.111C50.4983 24.6125 49.3553 24.8674 48.1472 24.7959C44.8505 24.6008 42.1782 21.9285 41.9831 18.6318C41.9106 17.4081 42.1731 16.2514 42.6873 15.2448C42.715 15.1905 42.7593 15.1462 42.8136 15.1184C43.8203 14.6042 44.9771 14.3417 46.2007 14.4142C49.4973 14.6092 52.1697 17.2816 52.3648 20.5783Z" fill="#82CD64"></path><path d="M51.713 23.8598C50.6449 26.0471 48.3988 27.5538 45.8008 27.5538C42.169 27.5538 39.2249 24.6097 39.2249 20.9779C39.2249 18.3799 40.7317 16.1339 42.9189 15.0657C42.494 15.9359 42.2553 16.9138 42.2553 17.9474C42.2553 21.5791 45.1994 24.5233 48.8312 24.5233C49.8649 24.5235 50.8428 24.2848 51.713 23.8598Z" fill="#6DC54A"></path><path d="M7.03677 50.3908V49.3184C7.03677 47.5416 8.47711 46.1012 10.2539 46.1012C12.0307 46.1012 13.471 47.5416 13.471 49.3184V50.3908C13.471 52.1676 12.0307 53.6079 10.2539 53.6079C8.47711 53.6079 7.03677 52.1676 7.03677 50.3908ZM5.50894 61.4798H14.9989C15.3763 61.4798 15.6825 61.1736 15.6825 60.7962V59.1469C15.6825 56.8816 13.8462 55.0454 11.5809 55.0454H8.92691C6.66162 55.0454 4.82535 56.8816 4.82535 59.1469V60.7962C4.82535 61.1736 5.13146 61.4798 5.50894 61.4798ZM35 53.6079C36.7768 53.6079 38.2171 52.1676 38.2171 50.3908V49.3184C38.2171 47.5416 36.7768 46.1012 35 46.1012C33.2232 46.1012 31.7829 47.5416 31.7829 49.3184V50.3908C31.7829 52.1676 33.2232 53.6079 35 53.6079ZM30.255 61.4798H39.745C40.1224 61.4798 40.4286 61.1736 40.4286 60.7962V59.1469C40.4286 56.8816 38.5923 55.0454 36.327 55.0454H33.673C31.4077 55.0454 29.5714 56.8816 29.5714 59.1469V60.7962C29.5714 61.1736 29.8776 61.4798 30.255 61.4798ZM59.7461 53.6079C61.5229 53.6079 62.9632 52.1676 62.9632 50.3908V49.3184C62.9632 47.5416 61.5229 46.1012 59.7461 46.1012C57.9693 46.1012 56.529 47.5416 56.529 49.3184V50.3908C56.529 52.1676 57.9693 53.6079 59.7461 53.6079ZM55.0011 61.4798H64.4911C64.8685 61.4798 65.1746 61.1736 65.1746 60.7962V59.1469C65.1746 56.8816 63.3384 55.0454 61.0731 55.0454H58.4191C56.1538 55.0454 54.3175 56.8816 54.3175 59.1469V60.7962C54.3175 61.1736 54.6236 61.4798 55.0011 61.4798ZM54.2743 16.4513L46.5258 24.1998C46.3336 24.3922 46.0727 24.5002 45.8008 24.5002C45.5288 24.5002 45.268 24.3922 45.0758 24.1998L41.2765 20.4006C40.876 20.0001 40.876 19.3508 41.2765 18.9505C41.6769 18.5501 42.3262 18.5501 42.7265 18.9505L45.8008 22.0248L52.8243 15.0013C53.2247 14.6008 53.874 14.6008 54.2743 15.0013C54.6748 15.4016 54.6748 16.0509 54.2743 16.4513Z" fill="#FFF5F5"></path></g><defs><clipPath id="clip0_34_377"><rect width="70" height="70" fill="white"></rect></clipPath></defs></svg>