<svg xmlns="http://www.w3.org/2000/svg" width="70" height="70" viewBox="0 0 70 70" fill="none"><g clip-path="url(#clip0_34_346)"><path d="M41.1813 64.0678H5.33896C2.71795 64.0678 0.593201 61.9431 0.593201 59.322V7.11865H64.661V40.5881L41.1813 64.0678Z" fill="#ECF0F1"></path><path d="M64.661 4.74576V9.49153H0.593201V4.74576C0.593201 2.12475 2.71795 0 5.33896 0H59.9152C62.5362 0 64.661 2.12475 64.661 4.74576Z" fill="#3B97D3"></path><path d="M5.33897 5.93221C5.99422 5.93221 6.52541 5.40102 6.52541 4.74577C6.52541 4.09051 5.99422 3.55933 5.33897 3.55933C4.68371 3.55933 4.15253 4.09051 4.15253 4.74577C4.15253 5.40102 4.68371 5.93221 5.33897 5.93221Z" fill="#FF5364"></path><path d="M10.0848 5.93221C10.74 5.93221 11.2712 5.40102 11.2712 4.74577C11.2712 4.09051 10.74 3.55933 10.0848 3.55933C9.4295 3.55933 8.89832 4.09051 8.89832 4.74577C8.89832 5.40102 9.4295 5.93221 10.0848 5.93221Z" fill="#F3D55B"></path><path d="M14.8305 5.93221C15.4857 5.93221 16.0169 5.40102 16.0169 4.74577C16.0169 4.09051 15.4857 3.55933 14.8305 3.55933C14.1752 3.55933 13.644 4.09051 13.644 4.74577C13.644 5.40102 14.1752 5.93221 14.8305 5.93221Z" fill="#65DDB9"></path><path d="M39.7458 5.93221H25.5085C24.8532 5.93221 24.322 5.40102 24.322 4.74577C24.322 4.09051 24.8532 3.55933 25.5085 3.55933H39.7458C40.401 3.55933 40.9322 4.09051 40.9322 4.74577C40.9322 5.40102 40.401 5.93221 39.7458 5.93221Z" fill="#2980BA"></path><path d="M69.4067 52.2034C69.4143 60.1531 63.793 66.9958 55.9931 68.5316C48.1932 70.0674 40.3974 65.8666 37.3906 58.5075C34.3839 51.1483 37.0075 42.6904 43.6512 38.3248C50.2949 33.9592 59.0995 34.9077 64.661 40.5882C67.7007 43.6906 69.4043 47.8601 69.4067 52.2034Z" fill="#FF5364"></path><path d="M49.2373 49.8306C48.582 49.8306 48.0508 49.2994 48.0508 48.6441V43.8984C48.0508 41.2773 50.1756 39.1526 52.7966 39.1526C55.4176 39.1526 57.5424 41.2773 57.5424 43.8984C57.5424 44.5536 57.0112 45.0848 56.3559 45.0848C55.7007 45.0848 55.1695 44.5536 55.1695 43.8984C55.1695 42.5878 54.1071 41.5255 52.7966 41.5255C51.4861 41.5255 50.4237 42.5878 50.4237 43.8984V48.6441C50.4237 49.2994 49.8925 49.8306 49.2373 49.8306Z" fill="#D1D4D1"></path><path d="M24.322 28.4745C24.025 28.4745 23.7388 28.3631 23.5199 28.1624L17.9674 23.069C17.4815 22.6321 17.204 22.0093 17.204 21.3558C17.204 20.7023 17.4815 20.0796 17.9674 19.6426L23.5211 14.5492C23.8335 14.2627 24.2751 14.1646 24.6794 14.2918C25.0837 14.4191 25.3895 14.7524 25.4814 15.1662C25.5734 15.58 25.4376 16.0115 25.1252 16.298L19.5762 21.3914L25.1299 26.4136C25.4913 26.745 25.6116 27.2646 25.4326 27.7211C25.2537 28.1776 24.8123 28.477 24.322 28.4745Z" fill="#7F8C8D"></path><path d="M40.9322 28.4745C40.4429 28.4745 40.0038 28.1742 39.8264 27.7183C39.6489 27.2624 39.7696 26.7443 40.1301 26.4136L45.6839 21.3202L40.1301 16.298C39.8177 16.0115 39.6819 15.58 39.7739 15.1662C39.8658 14.7524 40.1716 14.4191 40.5759 14.2918C40.9803 14.1646 41.4218 14.2627 41.7342 14.5492L47.2867 19.6426C47.7726 20.0796 48.0502 20.7023 48.0502 21.3558C48.0502 22.0093 47.7726 22.6321 47.2867 23.069L41.733 28.1624C41.5144 28.3629 41.2287 28.4742 40.9322 28.4745Z" fill="#7F8C8D"></path><path d="M29.0678 28.4745C28.6405 28.4739 28.2464 28.2437 28.0362 27.8717C27.826 27.4996 27.8321 27.0433 28.0522 26.677L35.1708 14.8126C35.514 14.2642 36.2332 14.0918 36.7877 14.425C37.3422 14.7582 37.5275 15.4742 37.2044 16.0346L30.0857 27.899C29.8711 28.2563 29.4846 28.4748 29.0678 28.4745Z" fill="#7F8C8D"></path><path d="M7.71183 35.5931C8.36708 35.5931 8.89827 35.0619 8.89827 34.4067C8.89827 33.7514 8.36708 33.2202 7.71183 33.2202C7.05658 33.2202 6.52539 33.7514 6.52539 34.4067C6.52539 35.0619 7.05658 35.5931 7.71183 35.5931Z" fill="#7F8C8D"></path><path d="M7.71183 40.3389C8.36708 40.3389 8.89827 39.8078 8.89827 39.1525C8.89827 38.4973 8.36708 37.9661 7.71183 37.9661C7.05658 37.9661 6.52539 38.4973 6.52539 39.1525C6.52539 39.8078 7.05658 40.3389 7.71183 40.3389Z" fill="#7F8C8D"></path><path d="M7.71183 45.0846C8.36708 45.0846 8.89827 44.5534 8.89827 43.8981C8.89827 43.2429 8.36708 42.7117 7.71183 42.7117C7.05658 42.7117 6.52539 43.2429 6.52539 43.8981C6.52539 44.5534 7.05658 45.0846 7.71183 45.0846Z" fill="#7F8C8D"></path><path d="M7.71183 49.8304C8.36708 49.8304 8.89827 49.2992 8.89827 48.644C8.89827 47.9887 8.36708 47.4575 7.71183 47.4575C7.05658 47.4575 6.52539 47.9887 6.52539 48.644C6.52539 49.2992 7.05658 49.8304 7.71183 49.8304Z" fill="#7F8C8D"></path><path d="M7.71183 54.5763C8.36708 54.5763 8.89827 54.0451 8.89827 53.3898C8.89827 52.7346 8.36708 52.2034 7.71183 52.2034C7.05658 52.2034 6.52539 52.7346 6.52539 53.3898C6.52539 54.0451 7.05658 54.5763 7.71183 54.5763Z" fill="#7F8C8D"></path><path d="M7.71183 59.3219C8.36708 59.3219 8.89827 58.7907 8.89827 58.1354C8.89827 57.4802 8.36708 56.949 7.71183 56.949C7.05658 56.949 6.52539 57.4802 6.52539 58.1354C6.52539 58.7907 7.05658 59.3219 7.71183 59.3219Z" fill="#7F8C8D"></path><path d="M24.322 35.5931H12.4576C11.8024 35.5931 11.2712 35.0619 11.2712 34.4067C11.2712 33.7514 11.8024 33.2202 12.4576 33.2202H24.322C24.9773 33.2202 25.5085 33.7514 25.5085 34.4067C25.5085 35.0619 24.9773 35.5931 24.322 35.5931Z" fill="#7F8C8D"></path><path d="M30.2542 45.0846H12.4576C11.8024 45.0846 11.2712 44.5534 11.2712 43.8981C11.2712 43.2429 11.8024 42.7117 12.4576 42.7117H30.2542C30.9095 42.7117 31.4407 43.2429 31.4407 43.8981C31.4407 44.5534 30.9095 45.0846 30.2542 45.0846Z" fill="#7F8C8D"></path><path d="M26.6949 54.5763H12.4576C11.8024 54.5763 11.2712 54.0451 11.2712 53.3898C11.2712 52.7346 11.8024 52.2034 12.4576 52.2034H26.6949C27.3502 52.2034 27.8813 52.7346 27.8813 53.3898C27.8813 54.0451 27.3502 54.5763 26.6949 54.5763Z" fill="#7F8C8D"></path><path d="M35 40.3389H12.4576C11.8024 40.3389 11.2712 39.8078 11.2712 39.1525C11.2712 38.4973 11.8024 37.9661 12.4576 37.9661H35C35.6552 37.9661 36.1864 38.4973 36.1864 39.1525C36.1864 39.8078 35.6552 40.3389 35 40.3389Z" fill="#7F8C8D"></path><path d="M19.5763 49.8304H12.4576C11.8024 49.8304 11.2712 49.2992 11.2712 48.644C11.2712 47.9887 11.8024 47.4575 12.4576 47.4575H19.5763C20.2315 47.4575 20.7627 47.9887 20.7627 48.644C20.7627 49.2992 20.2315 49.8304 19.5763 49.8304Z" fill="#7F8C8D"></path><path d="M18.3898 59.3219H12.4576C11.8024 59.3219 11.2712 58.7907 11.2712 58.1354C11.2712 57.4802 11.8024 56.949 12.4576 56.949H18.3898C19.0451 56.949 19.5763 57.4802 19.5763 58.1354C19.5763 58.7907 19.0451 59.3219 18.3898 59.3219Z" fill="#7F8C8D"></path><path d="M32.6271 35.5931H29.0678C28.4125 35.5931 27.8813 35.0619 27.8813 34.4067C27.8813 33.7514 28.4125 33.2202 29.0678 33.2202H32.6271C33.2824 33.2202 33.8136 33.7514 33.8136 34.4067C33.8136 35.0619 33.2824 35.5931 32.6271 35.5931Z" fill="#7F8C8D"></path><path d="M27.8813 49.8304H24.322C23.6667 49.8304 23.1356 49.2992 23.1356 48.644C23.1356 47.9887 23.6667 47.4575 24.322 47.4575H27.8813C28.5366 47.4575 29.0678 47.9887 29.0678 48.644C29.0678 49.2992 28.5366 49.8304 27.8813 49.8304Z" fill="#7F8C8D"></path><path d="M57.5424 48.644H48.0509C46.7404 48.644 45.678 49.7064 45.678 51.0169V60.5084C45.678 61.819 46.7404 62.8813 48.0509 62.8813H57.5424C58.8529 62.8813 59.9153 61.819 59.9153 60.5084V51.0169C59.9153 49.7064 58.8529 48.644 57.5424 48.644Z" fill="#F0C419"></path><path d="M52.7966 58.1357C54.1071 58.1357 55.1695 57.0733 55.1695 55.7628C55.1695 54.4523 54.1071 53.3899 52.7966 53.3899C51.4861 53.3899 50.4237 54.4523 50.4237 55.7628C50.4237 57.0733 51.4861 58.1357 52.7966 58.1357Z" fill="#A56A43"></path></g><defs><clipPath id="clip0_34_346"><rect width="70" height="70" fill="white"></rect></clipPath></defs></svg>