<svg xmlns="http://www.w3.org/2000/svg" width="112" height="112" viewBox="0 0 112 112" fill="none"><g clip-path="url(#clip0_574_3739)"><path d="M58.4806 10.7598C81.7393 10.7598 100.769 29.7896 100.769 53.0482V59.6554C100.769 82.9141 81.7392 101.944 58.4806 101.944H51.8734C28.6148 101.944 9.58496 82.9141 9.58496 59.6554V53.0482C9.58496 29.7896 28.6148 10.7598 51.8734 10.7598H58.4806Z" fill="#7590FF"></path><g clip-path="url(#clip1_574_3739)"><path d="M77.6306 64.2196C78.6564 61.5052 79.1759 58.655 79.1759 55.7332C79.1759 49.3209 76.6799 43.2936 72.1476 38.7614C67.6155 34.2294 61.5882 31.7334 55.1761 31.7334C52.2691 31.7334 49.4425 32.2455 46.761 33.2569C44.795 31.1 42.0487 29.8789 39.1029 29.8789C33.3687 29.8789 28.7036 34.5442 28.7036 40.2783C28.7036 43.344 30.0731 46.2547 32.405 48.2233C31.5895 50.666 31.1764 53.1885 31.1764 55.7332C31.1764 62.1453 33.6722 68.1726 38.2042 72.7047C42.7362 77.2369 48.7637 79.733 55.1761 79.733C57.7504 79.733 60.3116 79.3085 62.8028 78.4703C64.7396 81.1769 67.8961 82.8239 71.2493 82.8239C76.9835 82.8239 81.6487 78.1587 81.6487 72.4245C81.6487 69.1961 80.1626 66.1927 77.6306 64.2196ZM71.2493 80.571C68.3778 80.571 65.6898 79.0269 64.2345 76.5413C64.0273 76.1877 63.6524 75.9839 63.262 75.9839C63.1294 75.9839 62.995 76.0074 62.8648 76.0566C60.3607 77.0011 57.7739 77.48 55.1762 77.48C49.3656 77.48 43.904 75.2183 39.7974 71.1116C35.6909 67.005 33.4295 61.5435 33.4295 55.7332C33.4295 53.1843 33.8883 50.6583 34.7933 48.2253C34.9708 47.7476 34.8058 47.2103 34.3907 46.9148C32.2403 45.3841 30.9566 42.9032 30.9566 40.2783C30.9566 35.7863 34.611 32.1319 39.1029 32.1319C41.6334 32.1319 43.9765 33.2841 45.5314 35.293C45.8433 35.6958 46.3864 35.8393 46.8563 35.643C49.4887 34.5438 52.2879 33.9865 55.176 33.9865C60.9863 33.9865 66.4478 36.2481 70.5545 40.3547C74.6611 44.4613 76.9228 49.9229 76.9228 55.7333C76.9228 58.6565 76.3493 61.5004 75.2182 64.1863C75.0062 64.6896 75.1859 65.2726 75.6442 65.5693C77.9933 67.0894 79.3957 69.652 79.3957 72.4245C79.3957 76.9165 75.7412 80.571 71.2493 80.571Z" fill="white"></path><path d="M56.8432 52.1988C49.0494 50.684 48.5447 48.303 50.4199 46.6428C52.2973 44.9839 57.8732 44.2365 59.4404 47.1481C60.9569 49.9613 62.04 51.1163 64.1312 50.611C66.1293 50.1292 66.4169 47.3642 65.5753 45.7047C64.8965 44.3645 61.8224 40.9414 55.7601 40.9414C49.6988 40.9414 43.348 43.1787 43.348 48.7353C43.348 54.2918 49.1217 56.7452 54.6782 57.5397C60.2335 58.333 61.5327 60.7151 60.8132 62.4478C60.0923 64.1781 57.7087 65.8371 54.1011 65.4773C50.4922 65.1175 48.8271 62.0953 48.3272 60.5691C47.8466 59.1034 46.1635 58.9101 45.369 58.9814C44.5745 59.055 42.0487 60.0668 43.2029 63.6009C44.3583 67.1374 48.1121 69.9518 55.6163 69.9518C63.1204 69.9518 67.5225 65.3323 67.5227 60.9314C67.5227 56.5285 64.6382 53.7152 56.8432 52.1988Z" fill="white"></path></g></g><defs><clipPath id="clip0_574_3739"><rect width="91.67" height="91.67" fill="white" transform="translate(9.54297 10.666)"></rect></clipPath><clipPath id="clip1_574_3739"><rect width="52.945" height="52.945" fill="white" transform="translate(28.7046 29.8789)"></rect></clipPath></defs></svg>