<svg xmlns="http://www.w3.org/2000/svg" width="70" height="70" viewBox="0 0 70 70" fill="none"><g clip-path="url(#clip0_34_178)"><path d="M24.7461 55.5078H45.2539V67.9492H24.7461V55.5078Z" fill="#D8DBF0"></path><path d="M35 55.5078H45.2539V67.9492H35V55.5078Z" fill="#B8B8D9"></path><path d="M70 10.3906V55.5078C70 56.6561 69.0978 57.5586 67.9492 57.5586H2.05078C0.902207 57.5586 0 56.6561 0 55.5078V10.3906C0 9.24205 0.902207 8.33984 2.05078 8.33984H67.9492C69.0978 8.33984 70 9.24205 70 10.3906Z" fill="#664D99"></path><path d="M70 10.3906V55.5078C70 56.6561 69.0978 57.5586 67.9492 57.5586H35V8.33984H67.9492C69.0978 8.33984 70 9.24205 70 10.3906Z" fill="#4D4573"></path><path d="M4.10156 12.4414H65.8984V53.457H4.10156V12.4414Z" fill="#FFE666"></path><path d="M53.457 67.9492C53.457 69.0975 52.5548 70 51.4062 70H18.5938C17.4452 70 16.543 69.0975 16.543 67.9492C16.543 66.8006 17.4452 65.8984 18.5938 65.8984H51.4062C52.5548 65.8984 53.457 66.8006 53.457 67.9492Z" fill="#F3F5F9"></path><path d="M53.457 67.9492C53.457 69.0975 52.5548 70 51.4062 70H35V65.8984H51.4062C52.5548 65.8984 53.457 66.8006 53.457 67.9492Z" fill="#D8DBF0"></path><path d="M35 12.4414H65.8984V53.457H35V12.4414Z" fill="#FFC44D"></path><path d="M61.7969 16.543V47.3047C61.7969 48.453 60.8947 49.3555 59.7461 49.3555H10.2539C9.10533 49.3555 8.20312 48.453 8.20312 47.3047V16.543L12.3047 12.4414H57.6953L61.7969 16.543Z" fill="#F3F5F9"></path><path d="M61.7969 16.543V47.3047C61.7969 48.453 60.8947 49.3555 59.7461 49.3555H35V12.4414H57.6953L61.7969 16.543Z" fill="#D8DBF0"></path><path d="M30.8984 28.8477H18.5938C17.4602 28.8477 16.543 27.9304 16.543 26.7969C16.543 25.6633 17.4602 24.7461 18.5938 24.7461H30.8984C32.032 24.7461 32.9492 25.6633 32.9492 26.7969C32.9492 27.9304 32.032 28.8477 30.8984 28.8477Z" fill="#B8B8D9"></path><path d="M30.8984 37.0508H18.5938C17.4602 37.0508 16.543 36.1335 16.543 35C16.543 33.8665 17.4602 32.9492 18.5938 32.9492H30.8984C32.032 32.9492 32.9492 33.8665 32.9492 35C32.9492 36.1335 32.032 37.0508 30.8984 37.0508Z" fill="#B8B8D9"></path><path d="M49.9564 40.5515L45.8548 36.4499C45.0538 35.6489 45.0538 34.351 45.8548 33.55C46.6558 32.749 47.9537 32.749 48.7547 33.55L52.8563 37.6516C53.6573 38.4526 53.6573 39.7505 52.8563 40.5515C52.0551 41.3527 50.7574 41.3527 49.9564 40.5515Z" fill="#4D4573"></path><path d="M42.7304 41.0982C42.0415 40.934 41.4807 40.4253 41.2565 39.7504L37.1549 27.4457C36.9106 26.7087 37.1028 25.8956 37.6516 25.3468C38.2044 24.8022 39.0174 24.6038 39.7505 24.8522L52.0552 28.9538C52.7281 29.1781 53.2408 29.7348 53.4011 30.4277C53.5653 31.1187 53.361 31.8456 52.8564 32.3483L44.6533 40.5515C44.1585 41.0461 43.4385 41.2617 42.7304 41.0982Z" fill="#4D4573"></path><path d="M61.7969 2.05078V16.543H8.20312V2.05078C8.20312 0.902207 9.10533 0 10.2539 0H59.7461C60.8947 0 61.7969 0.902207 61.7969 2.05078Z" fill="#FF66E5"></path><path d="M61.7969 2.05078V16.543H35V0H59.7461C60.8947 0 61.7969 0.902207 61.7969 2.05078Z" fill="#E645B1"></path><path d="M18.5938 10.3906C19.7264 10.3906 20.6445 9.47246 20.6445 8.33984C20.6445 7.20723 19.7264 6.28906 18.5938 6.28906C17.4611 6.28906 16.543 7.20723 16.543 8.33984C16.543 9.47246 17.4611 10.3906 18.5938 10.3906Z" fill="#F3F5F9"></path><path d="M26.7969 10.3906C27.9295 10.3906 28.8477 9.47246 28.8477 8.33984C28.8477 7.20723 27.9295 6.28906 26.7969 6.28906C25.6643 6.28906 24.7461 7.20723 24.7461 8.33984C24.7461 9.47246 25.6643 10.3906 26.7969 10.3906Z" fill="#F3F5F9"></path><path d="M35 10.3906C36.1326 10.3906 37.0508 9.47246 37.0508 8.33984C37.0508 7.20723 36.1326 6.28906 35 6.28906C33.8674 6.28906 32.9492 7.20723 32.9492 8.33984C32.9492 9.47246 33.8674 10.3906 35 10.3906Z" fill="#F3F5F9"></path><path d="M37.0508 8.33984C37.0508 9.48814 36.1486 10.3906 35 10.3906V6.28906C36.1486 6.28906 37.0508 7.19127 37.0508 8.33984Z" fill="#D8DBF0"></path></g><defs><clipPath id="clip0_34_178"><rect width="70" height="70" fill="white"></rect></clipPath></defs></svg>