<svg xmlns="http://www.w3.org/2000/svg" width="70" height="70" viewBox="0 0 70 70" fill="none"><path d="M66.3621 14.9862L63.3818 14.2544C63.0954 13.0453 62.6182 11.9105 61.9818 10.8817L63.5727 8.2514C63.7742 7.912 63.7212 7.47715 63.4454 7.2014L61.9394 5.69534C61.6636 5.41958 61.2288 5.36655 60.8894 5.56806L58.2591 7.15897C57.2303 6.52261 56.0954 6.04534 54.8864 5.75897L54.1545 2.77867C54.0485 2.38625 53.7091 2.12109 53.3167 2.12109H51.1848C50.7924 2.12109 50.4424 2.38625 50.3576 2.76806L49.6258 5.74837C48.4167 6.03473 47.2818 6.512 46.253 7.14837L43.6227 5.55746C43.2833 5.35594 42.8485 5.40897 42.5727 5.68473L41.0454 7.2014C40.7697 7.47715 40.7167 7.912 40.9182 8.2514L42.5091 10.8817C41.8727 11.9105 41.3954 13.0453 41.1091 14.2544L38.1288 14.9862C37.747 15.0817 37.4818 15.4211 37.4818 15.8135V17.9453C37.4818 18.3378 37.747 18.6878 38.1288 18.7726L41.1091 19.5044C41.3954 20.7135 41.8727 21.8484 42.5091 22.8665L40.9182 25.4969C40.7167 25.8362 40.7697 26.2711 41.0454 26.5469L42.5515 28.0529C42.8273 28.3287 43.2621 28.3817 43.6015 28.1802L46.2318 26.5893C47.2606 27.2256 48.3954 27.7029 49.6045 27.9893L50.3364 30.9696C50.4318 31.3514 50.7712 31.6165 51.1636 31.6165H53.2954C53.6879 31.6165 54.0379 31.3514 54.1227 30.9696L54.8545 27.9893C56.0636 27.7029 57.1985 27.2256 58.2273 26.5893L60.8576 28.1802C61.197 28.3817 61.6318 28.3287 61.9076 28.0529L63.4136 26.5469C63.6894 26.2711 63.7424 25.8362 63.5409 25.4969L61.95 22.8665C62.5864 21.8378 63.0636 20.7029 63.35 19.5044L66.3303 18.7726C66.7121 18.6772 66.9773 18.3378 66.9773 17.9453V15.8135C67.0091 15.4211 66.7439 15.0817 66.3621 14.9862ZM52.2454 23.0681C48.8303 23.0681 46.0621 20.2999 46.0621 16.8847C46.0621 13.4696 48.8303 10.7014 52.2454 10.7014C55.6606 10.7014 58.4288 13.4696 58.4288 16.8847C58.4288 20.2999 55.6606 23.0681 52.2454 23.0681Z" fill="#FF4823"></path><path d="M54.4833 21.021C54.4833 19.8437 53.5288 18.8892 52.3515 18.8892H4.23179C3.05452 18.8892 2.09998 19.8437 2.09998 21.021V50.0498H54.4833V21.021Z" fill="#009AFF"></path><path opacity="0.35" d="M52.3515 18.8892H23.2061C23.2061 21.2331 25.1045 23.1316 27.4485 23.1316H50.2409V28.8164C50.2409 31.1604 52.1394 33.0589 54.4833 33.0589V21.021C54.4833 19.8437 53.5288 18.8892 52.3515 18.8892Z" fill="white"></path><path d="M2.09998 50.0498V57.0604C2.09998 58.2377 3.05452 59.1922 4.23179 59.1922H52.3515C53.5288 59.1922 54.4833 58.2377 54.4833 57.0604V50.0498H2.09998Z" fill="#E6E9EE"></path><path opacity="0.1" d="M42.3924 52.8922C23.5666 52.8922 8.31513 37.6301 8.31513 18.8149H4.23179C3.05452 18.8149 2.09998 19.7695 2.09998 20.9468V56.9756C2.09998 58.1528 3.05452 59.1074 4.23179 59.1074H52.3409C53.5182 59.1074 54.4727 58.1528 54.4727 56.9756V52.8922H42.3924Z" fill="black"></path><path d="M20.4909 59.1924H36.0924V63.6151H20.4909V59.1924Z" fill="#AAB2BD"></path><path d="M40.4727 63.615H16.1212C14.9439 63.615 13.9894 64.5695 13.9894 65.7468V67.8786H42.6045V65.7468C42.6045 64.5695 41.65 63.615 40.4727 63.615Z" fill="#E6E9EE"></path><path d="M65.6621 31.2666H34.5121C33.3348 31.2666 32.3802 32.2211 32.3802 33.3984V38.2984H67.8045V33.3984C67.7939 32.2211 66.8393 31.2666 65.6621 31.2666Z" fill="#FEC200"></path><path opacity="0.1" d="M39.5076 35.9121C36.9409 35.9121 34.8621 33.8333 34.8621 31.2666H34.597C33.4197 31.2666 32.4651 32.2211 32.4651 33.3984V38.2984H67.8894V35.9014H39.5076V35.9121Z" fill="black"></path><path d="M11.0515 36.8243C10.7757 36.8243 10.5106 36.7182 10.2985 36.5167L6.6924 32.9106C6.49089 32.7091 6.38483 32.444 6.38483 32.1576C6.38483 31.8712 6.50149 31.6061 6.6924 31.4046L10.2985 27.7985C10.7121 27.3849 11.3803 27.3849 11.7939 27.7985C12.2076 28.2121 12.2076 28.8803 11.7939 29.294L8.93028 32.1576L11.7939 35.0212C12.2076 35.4349 12.2076 36.1031 11.7939 36.5167C11.5924 36.7288 11.3166 36.8243 11.0515 36.8243Z" fill="white"></path><path d="M21.9545 36.8243C21.6787 36.8243 21.4136 36.7182 21.2015 36.5167C20.7878 36.1031 20.7878 35.4349 21.2015 35.0212L24.0651 32.1576L21.2015 29.294C20.7878 28.8803 20.7878 28.2121 21.2015 27.7985C21.6151 27.3849 22.2833 27.3849 22.6969 27.7985L26.303 31.4046C26.5045 31.6061 26.6106 31.8712 26.6106 32.1576C26.6106 32.444 26.4939 32.7091 26.303 32.9106L22.6969 36.5167C22.4954 36.7288 22.2303 36.8243 21.9545 36.8243Z" fill="white"></path><path d="M13.3 40.0908C13.1515 40.0908 12.9924 40.059 12.8545 39.9954C12.3242 39.7514 12.0909 39.1151 12.3454 38.5848L18.7515 24.8499C18.9954 24.3196 19.6318 24.0863 20.1621 24.3408C20.6924 24.5848 20.9257 25.2211 20.6712 25.7514L14.2651 39.4863C14.0848 39.8575 13.703 40.0908 13.3 40.0908Z" fill="white"></path><path d="M32.3802 38.3091V65.747C32.3802 66.9242 33.3348 67.8788 34.5121 67.8788H65.6727C66.8499 67.8788 67.8045 66.9242 67.8045 65.747V38.3091H32.3802Z" fill="#5D5B68"></path><path d="M62.4697 42.5725H37.7045C37.1212 42.5725 36.6439 43.0498 36.6439 43.6331V53.4755C36.6439 54.0589 37.1212 54.5361 37.7045 54.5361H62.4697C63.053 54.5361 63.5303 54.0589 63.5303 53.4755V43.6331C63.5303 43.0392 63.0636 42.5725 62.4697 42.5725Z" fill="#FF4823"></path><path opacity="0.1" d="M63.5303 53.4756V53.3802L52.6909 48.5544L63.5303 43.7287V43.6226C63.5303 43.0393 63.053 42.562 62.4697 42.562H60.9212L50.0818 47.3878L39.2424 42.562H37.6939C37.1106 42.562 36.6333 43.0393 36.6333 43.6226V43.7287L47.4727 48.5544L36.6333 53.3802V53.4756C36.6333 54.059 37.1106 54.5363 37.6939 54.5363H39.2424L50.0818 49.7105L60.9212 54.5363H62.4697C63.0636 54.5363 63.5303 54.059 63.5303 53.4756Z" fill="black"></path><path d="M36.9303 35.859C37.5219 35.859 38.0015 35.3794 38.0015 34.7878C38.0015 34.1961 37.5219 33.7166 36.9303 33.7166C36.3387 33.7166 35.8591 34.1961 35.8591 34.7878C35.8591 35.3794 36.3387 35.859 36.9303 35.859Z" fill="white"></path><path d="M40.7697 35.859C41.3613 35.859 41.8409 35.3794 41.8409 34.7878C41.8409 34.1961 41.3613 33.7166 40.7697 33.7166C40.1781 33.7166 39.6985 34.1961 39.6985 34.7878C39.6985 35.3794 40.1781 35.859 40.7697 35.859Z" fill="white"></path><path d="M44.6091 35.859C45.2007 35.859 45.6803 35.3794 45.6803 34.7878C45.6803 34.1961 45.2007 33.7166 44.6091 33.7166C44.0174 33.7166 43.5378 34.1961 43.5378 34.7878C43.5378 35.3794 44.0174 35.859 44.6091 35.859Z" fill="white"></path><path d="M46.8575 60.1363H36.6333C36.05 60.1363 35.5727 59.6591 35.5727 59.0757C35.5727 58.4924 36.05 58.0151 36.6333 58.0151H46.8575C47.4409 58.0151 47.9181 58.4924 47.9181 59.0757C47.9181 59.6591 47.4409 60.1363 46.8575 60.1363Z" fill="white"></path><path d="M41.5227 64.8453H36.6333C36.05 64.8453 35.5727 64.3681 35.5727 63.7847C35.5727 63.2014 36.05 62.7241 36.6333 62.7241H41.5227C42.106 62.7241 42.5833 63.2014 42.5833 63.7847C42.5833 64.3681 42.106 64.8453 41.5227 64.8453Z" fill="white"></path><path d="M63.5303 60.306H53.306C52.7227 60.306 52.2454 59.8288 52.2454 59.2454C52.2454 58.6621 52.7227 58.1848 53.306 58.1848H63.5303C64.1136 58.1848 64.5909 58.6621 64.5909 59.2454C64.5909 59.8288 64.1242 60.306 63.5303 60.306Z" fill="white"></path><path d="M58.1954 64.8453H53.306C52.7227 64.8453 52.2454 64.3681 52.2454 63.7847C52.2454 63.2014 52.7227 62.7241 53.306 62.7241H58.1954C58.7788 62.7241 59.256 63.2014 59.256 63.7847C59.256 64.3681 58.7894 64.8453 58.1954 64.8453Z" fill="white"></path><path d="M28.2969 55.6922C28.8885 55.6922 29.3681 55.2126 29.3681 54.621C29.3681 54.0294 28.8885 53.5498 28.2969 53.5498C27.7053 53.5498 27.2257 54.0294 27.2257 54.621C27.2257 55.2126 27.7053 55.6922 28.2969 55.6922Z" fill="#009AFF"></path><path opacity="0.1" d="M61.95 62.3105C48.6924 62.3105 37.9379 51.5559 37.9379 38.2983H32.3697V65.7362C32.3697 66.9135 33.3242 67.868 34.5015 67.868H65.6621C66.8394 67.868 67.7939 66.9135 67.7939 65.7362V62.2999H61.95V62.3105Z" fill="black"></path></svg>