<svg xmlns="http://www.w3.org/2000/svg" width="49" height="49" viewBox="0 0 49 49" fill="none"><mask id="mask0_33_3422" style="mask-type:alpha" maskUnits="userSpaceOnUse" x="0" y="0" width="49" height="49"><rect width="48.6201" height="48.6201" fill="#D9D9D9"></rect></mask><g mask="url(#mask0_33_3422)"><path d="M22.1829 28.3616L32.2108 18.3337L29.324 15.4975L22.1829 22.6386L19.2961 19.7518L16.4092 22.6386L22.1829 28.3616ZM10.1292 42.5425V10.1291C10.1292 9.01486 10.5259 8.06103 11.3193 7.26757C12.1128 6.47412 13.0666 6.07739 14.1808 6.07739H34.4392C35.5534 6.07739 36.5073 6.47412 37.3007 7.26757C38.0942 8.06103 38.4909 9.01486 38.4909 10.1291V42.5425L24.31 36.465L10.1292 42.5425ZM14.1808 36.3637L24.31 32.0081L34.4392 36.3637V10.1291H14.1808V36.3637Z" fill="#818CF2"></path></g></svg>