<svg xmlns="http://www.w3.org/2000/svg" width="60" height="60" viewBox="0 0 60 60" fill="none"><mask id="mask0_33_3427" style="mask-type:alpha" maskUnits="userSpaceOnUse" x="0" y="0" width="60" height="60"><rect width="60" height="60" fill="#D9D9D9"></rect></mask><g mask="url(#mask0_33_3427)"><path d="M25.5 33L22.875 30.375C23.2083 29.9167 23.4375 29.4479 23.5625 28.9687C23.6875 28.4896 23.75 28 23.75 27.5C23.75 27 23.6875 26.5104 23.5625 26.0312C23.4375 25.5521 23.2083 25.1042 22.875 24.6875L25.5 22C26.1667 22.7917 26.6667 23.6667 27 24.625C27.3333 25.5833 27.5 26.5417 27.5 27.5C27.5 28.4583 27.3333 29.4063 27 30.3438C26.6667 31.2813 26.1667 32.1667 25.5 33ZM30.8125 38.375L28.125 35.6875C29.1667 34.5208 29.9479 33.2292 30.4688 31.8125C30.9896 30.3958 31.25 28.9583 31.25 27.5C31.25 26.0417 30.9896 24.6146 30.4688 23.2187C29.9479 21.8229 29.1667 20.5417 28.125 19.375L30.8125 16.6875C32.2292 18.2292 33.2813 19.9271 33.9688 21.7813C34.6563 23.6354 35 25.5417 35 27.5C35 29.4583 34.6563 31.375 33.9688 33.25C33.2813 35.125 32.2292 36.8333 30.8125 38.375ZM12.5 30C11.125 30 9.94792 29.5104 8.96875 28.5313C7.98958 27.5521 7.5 26.375 7.5 25C7.5 23.625 7.98958 22.4479 8.96875 21.4688C9.94792 20.4896 11.125 20 12.5 20C13.875 20 15.0521 20.4896 16.0312 21.4688C17.0104 22.4479 17.5 23.625 17.5 25C17.5 26.375 17.0104 27.5521 16.0312 28.5313C15.0521 29.5104 13.875 30 12.5 30ZM2.5 40V38.5625C2.5 37.5625 2.77083 36.6458 3.3125 35.8125C3.85417 34.9792 4.60417 34.3542 5.5625 33.9375C6.64583 33.4792 7.76042 33.125 8.90625 32.875C10.0521 32.625 11.25 32.5 12.5 32.5C13.75 32.5 14.9479 32.625 16.0938 32.875C17.2396 33.125 18.3542 33.4792 19.4375 33.9375C20.3958 34.3542 21.1458 34.9792 21.6875 35.8125C22.2292 36.6458 22.5 37.5625 22.5 38.5625V40H2.5ZM47.5 30C46.125 30 44.9479 29.5104 43.9687 28.5313C42.9896 27.5521 42.5 26.375 42.5 25C42.5 23.625 42.9896 22.4479 43.9687 21.4688C44.9479 20.4896 46.125 20 47.5 20C48.875 20 50.0521 20.4896 51.0313 21.4688C52.0104 22.4479 52.5 23.625 52.5 25C52.5 26.375 52.0104 27.5521 51.0313 28.5313C50.0521 29.5104 48.875 30 47.5 30ZM37.5 40V38.5625C37.5 37.5625 37.7708 36.6458 38.3125 35.8125C38.8542 34.9792 39.6042 34.3542 40.5625 33.9375C41.6458 33.4792 42.7604 33.125 43.9062 32.875C45.0521 32.625 46.25 32.5 47.5 32.5C48.75 32.5 49.9479 32.625 51.0938 32.875C52.2396 33.125 53.3542 33.4792 54.4375 33.9375C55.3958 34.3542 56.1458 34.9792 56.6875 35.8125C57.2292 36.6458 57.5 37.5625 57.5 38.5625V40H37.5Z" fill="#818CF2"></path></g></svg>