<svg xmlns="http://www.w3.org/2000/svg" width="82" height="82" viewBox="0 0 82 82" fill="none"><mask id="mask0_131_2225" style="mask-type:alpha" maskUnits="userSpaceOnUse" x="0" y="0" width="82" height="82"><rect x="0.208984" y="0.209351" width="81.3488" height="81.3488" fill="#D9D9D9"></rect></mask><g mask="url(#mask0_131_2225)"><path d="M29.359 56.4756L13.7671 40.8838L29.359 25.2919L34.1043 30.2067L23.4273 40.8838L34.1043 51.5608L29.359 56.4756ZM17.1566 57.8314H23.9357V61.221H57.831V57.8314H64.6101V71.3896C64.6101 73.2538 63.9463 74.8497 62.6188 76.1773C61.2912 77.5049 59.6953 78.1686 57.831 78.1686H23.9357C22.0715 78.1686 20.4755 77.5049 19.148 76.1773C17.8204 74.8497 17.1566 73.2538 17.1566 71.3896V57.8314ZM23.9357 23.9361H17.1566V10.3779C17.1566 8.5137 17.8204 6.9178 19.148 5.59023C20.4755 4.26266 22.0715 3.59888 23.9357 3.59888H57.831C59.6953 3.59888 61.2912 4.26266 62.6188 5.59023C63.9463 6.9178 64.6101 8.5137 64.6101 10.3779V23.9361H57.831V20.5466H23.9357V23.9361ZM23.9357 68V71.3896H57.831V68H23.9357ZM23.9357 13.7675H57.831V10.3779H23.9357V13.7675ZM52.4078 56.4756L47.6624 51.5608L58.3395 40.8838L47.6624 30.2067L52.4078 25.2919L67.9996 40.8838L52.4078 56.4756Z" fill="#F9D12B"></path></g></svg>