<svg xmlns="http://www.w3.org/2000/svg" width="82" height="82" viewBox="0 0 82 82" fill="none"><mask id="mask0_131_2228" style="mask-type:alpha" maskUnits="userSpaceOnUse" x="0" y="0" width="82" height="82"><rect x="0.208984" y="0.209351" width="81.3488" height="81.3488" fill="#D9D9D9"></rect></mask><g mask="url(#mask0_131_2228)"><path d="M6.98828 23.9361V17.157C6.98828 15.2928 7.65207 13.6968 8.97963 12.3693C10.3072 11.0417 11.9031 10.3779 13.7674 10.3779H67.9999C69.8642 10.3779 71.4601 11.0417 72.7876 12.3693C74.1152 13.6968 74.779 15.2928 74.779 17.157V23.9361H67.9999V17.157H13.7674V23.9361H6.98828ZM27.3255 71.3896V64.6105H13.7674C11.9031 64.6105 10.3072 63.9467 8.97963 62.6191C7.65207 61.2916 6.98828 59.6957 6.98828 57.8314V51.0523H13.7674V57.8314H67.9999V51.0523H74.779V57.8314C74.779 59.6957 74.1152 61.2916 72.7876 62.6191C71.4601 63.9467 69.8642 64.6105 67.9999 64.6105H54.4418V71.3896H27.3255ZM16.479 37.4942L25.2918 28.6814L20.5464 23.9361L6.98828 37.4942L20.5464 51.0523L25.2918 46.307L16.479 37.4942ZM65.2883 37.4942L56.4755 46.307L61.2208 51.0523L74.779 37.4942L61.2208 23.9361L56.4755 28.6814L65.2883 37.4942Z" fill="#F9D12B"></path></g></svg>