<svg xmlns="http://www.w3.org/2000/svg" width="49" height="49" viewBox="0 0 49 49" fill="none"><mask id="mask0_33_3418" style="mask-type:alpha" maskUnits="userSpaceOnUse" x="0" y="0" width="49" height="49"><rect width="48.6201" height="48.6201" fill="#D9D9D9"></rect></mask><g mask="url(#mask0_33_3418)"><path d="M4.05176 14.1807V10.1291C4.05176 9.01486 4.44848 8.06103 5.24194 7.26757C6.03539 6.47412 6.98922 6.07739 8.10343 6.07739H40.5168C41.6311 6.07739 42.5849 6.47412 43.3783 7.26757C44.1718 8.06103 44.5685 9.01486 44.5685 10.1291V14.1807H40.5168V10.1291H8.10343V14.1807H4.05176ZM16.2068 42.5425V38.4908H8.10343C6.98922 38.4908 6.03539 38.0941 5.24194 37.3006C4.44848 36.5072 4.05176 35.5533 4.05176 34.4391V30.3875H8.10343V34.4391H40.5168V30.3875H44.5685V34.4391C44.5685 35.5533 44.1718 36.5072 43.3783 37.3006C42.5849 38.0941 41.6311 38.4908 40.5168 38.4908H32.4135V42.5425H16.2068ZM9.72411 22.2841L14.9913 17.0169L12.1551 14.1807L4.05176 22.2841L12.1551 30.3875L14.9913 27.5513L9.72411 22.2841ZM38.8962 22.2841L33.629 27.5513L36.4652 30.3875L44.5685 22.2841L36.4652 14.1807L33.629 17.0169L38.8962 22.2841Z" fill="#818CF2"></path></g></svg>