<svg xmlns="http://www.w3.org/2000/svg" width="82" height="82" viewBox="0 0 82 82" fill="none"><mask id="mask0_131_2218" style="mask-type:alpha" maskUnits="userSpaceOnUse" x="0" y="0" width="82" height="82"><rect x="0.208984" y="0.209351" width="81.3488" height="81.3488" fill="#D9D9D9"></rect></mask><g mask="url(#mask0_131_2218)"><path d="M51.3065 68H56.0518V60.9668L64.6951 58.933C65.8815 58.6506 67.1102 58.3257 68.3812 57.9585C69.6523 57.5913 70.2879 57.0123 70.2879 56.2214C70.2879 55.7695 70.0619 55.3599 69.6099 54.9927C69.158 54.6255 68.3954 54.2724 67.322 53.9335C65.1753 53.3121 63.537 52.3517 62.4072 51.0524C61.2773 49.753 60.7689 48.369 60.8819 46.9002C60.9949 45.7139 61.5457 44.6546 62.5343 43.7225C63.5229 42.7904 64.9211 42.0136 66.7288 41.3922C68.3106 40.8273 69.4828 40.1917 70.2455 39.4856C71.0081 38.7794 71.3895 37.9462 71.3895 36.9858C71.3895 35.856 70.9093 34.9945 69.9489 34.4013C68.9885 33.8081 67.9434 33.7093 66.8136 34.1047C66.4746 34.2177 66.1215 34.3024 65.7543 34.3589C65.3871 34.4154 65.0341 34.4437 64.6951 34.4437C63.2263 34.4437 61.9976 33.8787 61.009 32.7489C60.0204 31.619 59.5261 30.235 59.5261 28.5967C59.5261 27.1279 59.9074 25.7862 60.67 24.5716C61.4327 23.357 61.814 22.0154 61.814 20.5466C61.814 19.5862 61.4044 18.7812 60.5853 18.1315C59.7662 17.4819 58.7634 17.157 57.5771 17.157C55.9388 17.157 54.7949 17.5101 54.1452 18.2163C53.4955 18.9224 53.1707 20.2641 53.1707 22.2413C53.1707 23.2017 53.2131 24.1338 53.2978 25.0377C53.3825 25.9416 53.4249 26.8737 53.4249 27.8341C53.4249 30.3762 52.973 32.2405 52.0691 33.4268C51.1652 34.6131 49.7529 35.2063 47.8322 35.2063C47.2108 35.2063 46.5611 35.1216 45.8832 34.9521C45.2053 34.7826 44.5556 34.6979 43.9342 34.6979C43.5953 34.6979 43.3269 34.7685 43.1292 34.9097C42.9315 35.0509 42.8326 35.2628 42.8326 35.5452C42.8326 36.1102 43.1716 36.6751 43.8495 37.24C44.5274 37.8049 45.177 38.3416 45.7985 38.85C47.2673 40.1494 48.3406 41.3922 49.0185 42.5785C49.6964 43.7649 50.0354 44.9512 50.0354 46.1375C50.0354 47.6628 49.4846 48.9622 48.383 50.0355C47.2814 51.1089 45.9397 51.6455 44.3579 51.6455C43.7365 51.6455 43.1433 51.589 42.5784 51.4761C42.0135 51.3631 41.4203 51.2783 40.7989 51.2218C39.2171 51.1089 38.0025 51.2501 37.1551 51.6455C36.3078 52.041 35.8841 52.6342 35.8841 53.425C35.8841 54.2159 36.2513 54.8656 36.9857 55.374C37.7201 55.8825 38.7934 56.2497 40.2057 56.4756L51.3065 58.2551V68ZM13.1742 71.3896L6.98828 68.5932L23.936 31.3083L30.1219 34.1047L13.1742 71.3896ZM44.5274 74.7791V63.9326L39.6973 63.2547C36.5902 62.8028 34.0622 61.687 32.1132 59.9075C30.1642 58.128 29.1897 56.0519 29.1897 53.6793C29.1897 50.9676 30.3055 48.6938 32.5369 46.8578C34.7683 45.0218 37.4376 44.1886 40.5447 44.358C40.8271 44.358 41.0672 44.3722 41.265 44.4004C41.4627 44.4287 41.6745 44.471 41.9005 44.5275C41.4486 44.0756 41.0249 43.666 40.6294 43.2988C40.234 42.9316 39.8668 42.5503 39.5278 42.1548C38.398 40.912 37.5788 39.768 37.0704 38.7229C36.562 37.6778 36.3078 36.6186 36.3078 35.5452C36.3078 33.3985 36.9151 31.6332 38.1296 30.2491C39.3442 28.865 40.9401 28.173 42.9174 28.173C43.3128 28.173 43.8495 28.1871 44.5274 28.2154C45.2053 28.2436 45.9397 28.3142 46.7306 28.4272C46.8436 27.2974 46.8436 26.1393 46.7306 24.953C46.6176 23.7666 46.5611 22.6085 46.5611 21.4787C46.5611 17.9197 47.5215 15.1798 49.4422 13.2591C51.3629 11.3383 54.1028 10.378 57.6618 10.378C60.8254 10.378 63.4664 11.2818 65.5849 13.0896C67.7033 14.8973 68.7343 17.1005 68.6778 19.6992C68.6778 20.9985 68.4519 22.2696 67.9999 23.5124C67.548 24.7552 67.0396 25.9698 66.4746 27.1562C66.7571 27.0997 67.0537 27.0573 67.3644 27.029C67.6751 27.0008 67.9717 26.9867 68.2541 26.9867C70.9658 26.9867 73.2961 27.9612 75.245 29.9101C77.194 31.8591 78.1685 34.2459 78.1685 37.0705C78.1685 39.4997 77.307 41.6888 75.584 43.6378C73.861 45.5867 71.8414 46.8719 69.5252 47.4934C69.9207 47.6063 70.2878 47.7193 70.6268 47.8323C70.9658 47.9453 71.3047 48.0865 71.6437 48.256C73.2819 49.0469 74.6095 50.1626 75.6264 51.6032C76.6432 53.0437 77.1517 54.6114 77.1517 56.3061C77.1517 58.4529 76.2054 60.3312 74.3129 61.9412C72.4204 63.5513 69.7229 64.78 66.2204 65.6274L62.8309 66.4748V74.7791H44.5274ZM11.9031 36.0537C10.2648 34.4154 9.03613 32.5653 8.21699 30.5033C7.39785 28.4413 6.98828 26.2805 6.98828 24.0208C6.98828 19.2755 8.62656 15.2504 11.9031 11.9456C15.1797 8.64082 19.1906 6.98842 23.936 6.98842C26.1956 6.98842 28.3565 7.41211 30.4184 8.25949C32.4804 9.10688 34.3305 10.3497 35.9688 11.988L31.2235 16.7333C30.2631 15.773 29.1474 15.0386 27.8763 14.5301C26.6052 14.0217 25.2918 13.7675 23.936 13.7675C21.1113 13.7675 18.7104 14.7561 16.7332 16.7333C14.756 18.7106 13.7674 21.1115 13.7674 23.9361C13.7674 25.2919 14.0216 26.6054 14.53 27.8764C15.0384 29.1475 15.7728 30.2632 16.7332 31.2236L11.9031 36.0537Z" fill="#FF5086"></path></g></svg>