<svg xmlns="http://www.w3.org/2000/svg" width="49" height="49" viewBox="0 0 49 49" fill="none"><mask id="mask0_33_3514" style="mask-type:alpha" maskUnits="userSpaceOnUse" x="0" y="0" width="49" height="49"><rect width="48.6201" height="48.6201" fill="#D9D9D9"></rect></mask><g mask="url(#mask0_33_3514)"><path d="M5.31738 28.4124L2.02539 26.0321L12.1546 9.82536L18.2321 16.9158L26.3355 3.74784L32.413 12.8641L39.2502 2.02588L42.5422 4.40624L32.5143 20.3091L26.4874 11.2434L18.7892 23.753L12.661 16.6119L5.31738 28.4124ZM29.3742 36.4651C30.7923 36.4651 31.9909 35.9755 32.9701 34.9964C33.9492 34.0172 34.4388 32.8186 34.4388 31.4005C34.4388 29.9824 33.9492 28.7838 32.9701 27.8047C31.9909 26.8255 30.7923 26.3359 29.3742 26.3359C27.9561 26.3359 26.7575 26.8255 25.7783 27.8047C24.7992 28.7838 24.3096 29.9824 24.3096 31.4005C24.3096 32.8186 24.7992 34.0172 25.7783 34.9964C26.7575 35.9755 27.9561 36.4651 29.3742 36.4651ZM39.706 44.5685L34.2362 39.0987C33.5272 39.5714 32.759 39.9259 31.9318 40.1623C31.1046 40.3986 30.2521 40.5168 29.3742 40.5168C26.8419 40.5168 24.6895 39.6305 22.9168 37.8579C21.1442 36.0853 20.2579 33.9328 20.2579 31.4005C20.2579 28.8682 21.1442 26.7158 22.9168 24.9432C24.6895 23.1706 26.8419 22.2843 29.3742 22.2843C31.9065 22.2843 34.059 23.1706 35.8316 24.9432C37.6042 26.7158 38.4905 28.8682 38.4905 31.4005C38.4905 32.2784 38.3723 33.1309 38.136 33.9582C37.8996 34.7854 37.5451 35.5535 37.0724 36.2625L42.5422 41.7323L39.706 44.5685Z" fill="#818CF2"></path></g></svg>