<svg xmlns="http://www.w3.org/2000/svg" width="49" height="49" viewBox="0 0 49 49" fill="none"><mask id="mask0_33_3414" style="mask-type:alpha" maskUnits="userSpaceOnUse" x="0" y="0" width="49" height="49"><rect width="48.6201" height="48.6201" fill="#D9D9D9"></rect></mask><g mask="url(#mask0_33_3414)"><path d="M32.4135 22.2843C32.9875 22.2843 33.4686 22.0902 33.8569 21.7019C34.2452 21.3136 34.4393 20.8325 34.4393 20.2585C34.4393 19.6845 34.2452 19.2033 33.8569 18.8151C33.4686 18.4268 32.9875 18.2326 32.4135 18.2326C31.8395 18.2326 31.3584 18.4268 30.9701 18.8151C30.5818 19.2033 30.3877 19.6845 30.3877 20.2585C30.3877 20.8325 30.5818 21.3136 30.9701 21.7019C31.3584 22.0902 31.8395 22.2843 32.4135 22.2843ZM16.2068 18.2326H26.336V14.1809H16.2068V18.2326ZM9.11635 42.5427C7.96838 38.6936 6.83729 34.8529 5.72307 31.0207C4.60886 27.1885 4.05176 23.2635 4.05176 19.2455C4.05176 16.1393 5.1322 13.5057 7.2931 11.3448C9.45399 9.18388 12.0876 8.10343 15.1939 8.10343H25.3231C26.3022 6.8204 27.4924 5.82437 28.8936 5.11532C30.2948 4.40628 31.8057 4.05176 33.4264 4.05176C34.2705 4.05176 34.988 4.34719 35.5789 4.93806C36.1697 5.52893 36.4652 6.24642 36.4652 7.09052C36.4652 7.2931 36.4398 7.49568 36.3892 7.69827C36.3386 7.90085 36.2795 8.08655 36.2119 8.25537C36.0769 8.62678 35.9503 9.00662 35.8321 9.39491C35.7139 9.78319 35.6211 10.1799 35.5535 10.5851L40.1623 15.1939H44.5685V29.3241L38.8455 31.198L35.4523 42.5427H24.3101V38.491H20.2585V42.5427H9.11635ZM12.1551 38.491H16.2068V34.4393H28.3618V38.491H32.4135L35.5535 28.0579L40.5168 26.3866V19.2455H38.491L31.4006 12.1551C31.4006 11.4798 31.4428 10.8299 31.5272 10.2052C31.6116 9.58061 31.7382 8.94753 31.907 8.30602C30.9279 8.57613 30.0669 9.04038 29.3241 9.69878C28.5813 10.3572 28.0411 11.176 27.7034 12.1551H15.1939C13.2356 12.1551 11.5642 12.8473 10.1799 14.2316C8.7956 15.6159 8.10343 17.2872 8.10343 19.2455C8.10343 22.5544 8.55925 25.7873 9.47088 28.9442C10.3825 32.1012 11.2772 35.2834 12.1551 38.491Z" fill="#818CF2"></path></g></svg>