<svg xmlns="http://www.w3.org/2000/svg" width="49" height="49" viewBox="0 0 49 49" fill="none"><mask id="mask0_33_3411" style="mask-type:alpha" maskUnits="userSpaceOnUse" x="0" y="0" width="49" height="49"><rect width="48.6201" height="48.6201" fill="#D9D9D9"></rect></mask><g mask="url(#mask0_33_3411)"><path d="M25.2724 34.0847L42.2388 17.1183L39.6052 14.4847L22.6388 31.4511L25.2724 34.0847ZM12.0538 38.4909C8.67738 38.3221 6.16197 37.613 4.50753 36.3638C2.8531 35.1145 2.02588 33.3081 2.02588 30.9446C2.02588 28.75 2.92906 26.9689 4.73544 25.6015C6.54181 24.234 9.04878 23.4153 12.2564 23.1452C13.5732 23.0439 14.5608 22.8328 15.2192 22.5121C15.8775 22.1913 16.2067 21.744 16.2067 21.17C16.2067 20.2921 15.7087 19.6337 14.7127 19.1948C13.7167 18.7558 12.0707 18.4351 9.77471 18.2325L10.1292 14.1808C13.6069 14.4509 16.1645 15.1515 17.8021 16.2826C19.4396 17.4137 20.2584 19.0428 20.2584 21.17C20.2584 22.9595 19.6085 24.3607 18.3086 25.3736C17.0086 26.3865 15.0925 26.9943 12.5602 27.1968C10.3993 27.3657 8.77867 27.7624 7.69823 28.387C6.61778 29.0116 6.07756 29.8642 6.07756 30.9446C6.07756 32.1264 6.55025 32.9789 7.49564 33.5023C8.44103 34.0256 10.0279 34.3379 12.2564 34.4392L12.0538 38.4909ZM26.2346 38.8454L17.8781 30.4888L37.2248 11.1421C37.9001 10.4668 38.702 10.1292 39.6305 10.1292C40.559 10.1292 41.3609 10.4668 42.0362 11.1421L45.5814 14.6873C46.2567 15.3626 46.5943 16.1645 46.5943 17.093C46.5943 18.0215 46.2567 18.8234 45.5814 19.4987L26.2346 38.8454ZM18.1819 40.5167C17.608 40.6518 17.1015 40.4998 16.6626 40.0609C16.2236 39.622 16.0717 39.1155 16.2067 38.5415L17.8781 30.4888L26.2346 38.8454L18.1819 40.5167Z" fill="#818CF2"></path></g></svg>