<svg xmlns="http://www.w3.org/2000/svg" width="82" height="82" viewBox="0 0 82 82" fill="none"><mask id="mask0_131_2215" style="mask-type:alpha" maskUnits="userSpaceOnUse" x="0" y="0" width="82" height="82"><rect x="0.208984" y="0.209351" width="81.3488" height="81.3488" fill="#D9D9D9"></rect></mask><g mask="url(#mask0_131_2215)"><path d="M10.3774 57.8314V23.9361C10.3774 22.0719 11.0412 20.4759 12.3688 19.1484C13.6964 17.8208 15.2923 17.157 17.1565 17.157H64.61C66.4742 17.157 68.0702 17.8208 69.3977 19.1484C70.7253 20.4759 71.3891 22.0719 71.3891 23.9361V57.8314C71.3891 59.6957 70.7253 61.2916 69.3977 62.6192C68.0702 63.9467 66.4742 64.6105 64.61 64.6105H17.1565C15.2923 64.6105 13.6964 63.9467 12.3688 62.6192C11.0412 61.2916 10.3774 59.6957 10.3774 57.8314ZM35.2058 37.4942H64.61V23.9361H35.2058V37.4942ZM53.3398 57.8314H64.61V44.2733H53.3398V57.8314ZM35.2058 57.8314H46.5607V44.2733H35.2058V57.8314ZM17.1565 57.8314H28.4267V23.9361H17.1565V57.8314Z" fill="#FF5086"></path></g></svg>